<svg width="312" height="91" viewBox="0 0 312 91" fill="none" xmlns="http://www.w3.org/2000/svg">
<path d="M69.0156 15.896C69.4956 15.968 69.7836 15.992 70.3116 15.992C70.7676 15.992 70.9836 15.968 71.3676 15.896C71.1756 18.416 71.1276 20.168 71.1276 24.92C71.1276 26.48 71.1996 29.456 71.2956 30.992C71.7756 31.016 72.0156 31.016 72.3516 31.016C74.1276 31.016 76.3596 30.848 77.7276 30.632C77.6556 30.944 77.6316 31.136 77.6316 31.424C77.6316 31.688 77.6556 31.832 77.7276 32.096C76.9836 32.048 74.2236 32 73.1436 32C72.4236 32 69.8556 32.048 69.0156 32.096C69.1356 30.68 69.2316 27.536 69.2316 24.032C69.2316 19.64 69.2076 18.56 69.0156 15.896Z" fill="#252525"/>
<path d="M89.4876 15.68L89.6556 16.112L91.2876 19.952L92.9676 23.912L94.7436 28.016C95.7516 30.392 95.9916 30.92 96.5436 32.096C96.0396 32.024 95.7756 32 95.2956 32C94.8396 32 94.5756 32.024 94.1436 32.096C93.7116 30.848 92.3916 27.464 91.6476 25.76H91.2156L88.4796 25.736C88.4556 25.736 86.1516 25.76 85.5996 25.784C85.0236 27.176 84.5676 28.28 84.3756 28.832C84.3516 28.856 83.8716 30.296 83.2476 32.096C82.8396 32.024 82.6476 32 82.4316 32C82.1916 32 82.0236 32.024 81.5436 32.096C82.0476 31.112 82.4076 30.344 83.4156 28.136C84.0156 26.768 84.6396 25.4 85.2636 23.984C85.8876 22.664 86.4636 21.392 87.0636 20C87.6156 18.776 88.1916 17.48 88.7676 16.184L89.0076 15.68H89.2476H89.4876ZM88.6716 18.776L88.5276 19.088L87.3276 21.752L86.1756 24.44L86.0316 24.776C87.1356 24.8 87.5916 24.8 88.7916 24.8C89.8476 24.8 90.4236 24.8 91.2396 24.776L91.1196 24.44C90.7356 23.552 90.3516 22.64 89.9916 21.752C89.5596 20.744 89.1996 19.928 88.6716 18.776Z" fill="#252525"/>
<path d="M108.946 18.68H108.706C108.25 17.36 107.074 16.52 105.706 16.52C104.026 16.52 102.754 17.768 102.754 19.4C102.754 20.24 103.138 21.056 103.81 21.56C104.386 21.968 105.106 22.352 106.522 22.928C108.13 23.6 108.586 23.864 109.162 24.44C109.882 25.136 110.242 26.048 110.242 27.152C110.242 30.128 107.77 32.408 104.554 32.408C103.018 32.408 101.626 31.952 100.522 31.064C100.858 30.032 100.93 29.648 101.002 28.928H101.242C101.89 30.368 103.426 31.352 104.986 31.352C106.93 31.352 108.37 29.936 108.37 27.968C108.37 27.128 108.082 26.456 107.53 25.928C106.954 25.4 106.594 25.208 104.914 24.512C102.01 23.312 100.93 22.112 100.93 20.048C100.93 17.384 102.994 15.584 105.994 15.584C107.386 15.584 108.442 15.92 109.594 16.712C109.306 17.336 109.066 18.104 108.946 18.68Z" fill="#252525"/>
<path d="M122.869 18.68H122.629C122.173 17.36 120.997 16.52 119.629 16.52C117.949 16.52 116.677 17.768 116.677 19.4C116.677 20.24 117.061 21.056 117.733 21.56C118.309 21.968 119.029 22.352 120.445 22.928C122.053 23.6 122.509 23.864 123.085 24.44C123.805 25.136 124.165 26.048 124.165 27.152C124.165 30.128 121.693 32.408 118.477 32.408C116.941 32.408 115.549 31.952 114.445 31.064C114.781 30.032 114.853 29.648 114.925 28.928H115.165C115.813 30.368 117.349 31.352 118.909 31.352C120.853 31.352 122.293 29.936 122.293 27.968C122.293 27.128 122.005 26.456 121.453 25.928C120.877 25.4 120.517 25.208 118.837 24.512C115.933 23.312 114.853 22.112 114.853 20.048C114.853 17.384 116.917 15.584 119.917 15.584C121.309 15.584 122.365 15.92 123.517 16.712C123.229 17.336 122.989 18.104 122.869 18.68Z" fill="#252525"/>
<path d="M129.418 15.896C129.898 15.968 130.162 15.992 130.594 15.992C131.026 15.992 131.29 15.968 131.77 15.896C131.626 17.576 131.53 20.432 131.53 23.216C131.53 27.296 131.602 30.272 131.77 32.096C131.194 32.024 130.906 32 130.57 32C130.21 32 129.946 32.024 129.418 32.096C129.562 30.2 129.634 27.272 129.634 22.76C129.634 20.096 129.538 17.384 129.418 15.896Z" fill="#252525"/>
<path d="M151.057 29.48L151.177 29.552L151.129 29.768L151.009 30.272L150.889 30.776L150.841 30.968C149.449 31.928 147.625 32.408 145.465 32.408C140.401 32.408 137.113 29.144 137.113 24.128C137.113 18.872 140.593 15.584 146.137 15.584C148.105 15.584 149.857 15.92 151.201 16.568C150.985 17.096 150.817 17.744 150.721 18.392L150.553 18.464C149.329 17.168 147.721 16.472 145.921 16.472C143.977 16.472 142.273 17.288 141.097 18.752C140.017 20.072 139.489 21.8 139.489 24.056C139.489 26.36 140.041 28.136 141.193 29.456C142.345 30.8 143.977 31.52 145.873 31.52C147.793 31.52 149.449 30.872 151.057 29.48Z" fill="#252525"/>
<path d="M162.758 15.68L162.926 16.112L164.558 19.952L166.238 23.912L168.014 28.016C169.022 30.392 169.262 30.92 169.814 32.096C169.31 32.024 169.046 32 168.566 32C168.11 32 167.846 32.024 167.414 32.096C166.982 30.848 165.662 27.464 164.918 25.76H164.486L161.75 25.736C161.726 25.736 159.422 25.76 158.87 25.784C158.294 27.176 157.838 28.28 157.646 28.832C157.622 28.856 157.142 30.296 156.518 32.096C156.11 32.024 155.918 32 155.702 32C155.462 32 155.294 32.024 154.814 32.096C155.318 31.112 155.678 30.344 156.686 28.136C157.286 26.768 157.91 25.4 158.534 23.984C159.158 22.664 159.734 21.392 160.334 20C160.886 18.776 161.462 17.48 162.038 16.184L162.278 15.68H162.518H162.758ZM161.942 18.776L161.798 19.088L160.598 21.752L159.446 24.44L159.302 24.776C160.406 24.8 160.862 24.8 162.062 24.8C163.118 24.8 163.694 24.8 164.51 24.776L164.39 24.44C164.006 23.552 163.622 22.64 163.262 21.752C162.83 20.744 162.47 19.928 161.942 18.776Z" fill="#252525"/>
<path d="M174.35 15.896C174.83 15.968 175.118 15.992 175.646 15.992C176.102 15.992 176.318 15.968 176.702 15.896C176.51 18.416 176.462 20.168 176.462 24.92C176.462 26.48 176.534 29.456 176.63 30.992C177.11 31.016 177.35 31.016 177.686 31.016C179.462 31.016 181.694 30.848 183.062 30.632C182.99 30.944 182.966 31.136 182.966 31.424C182.966 31.688 182.99 31.832 183.062 32.096C182.318 32.048 179.558 32 178.478 32C177.758 32 175.19 32.048 174.35 32.096C174.47 30.68 174.566 27.536 174.566 24.032C174.566 19.64 174.542 18.56 174.35 15.896Z" fill="#252525"/>
<path d="M74.4479 46.68L74.6159 47.112L76.2479 50.952L77.9279 54.912L79.7039 59.016C80.7119 61.392 80.9519 61.92 81.5039 63.096C80.9999 63.024 80.7359 63 80.2559 63C79.7999 63 79.5359 63.024 79.1039 63.096C78.6719 61.848 77.3519 58.464 76.6079 56.76H76.1759L73.4399 56.736C73.4159 56.736 71.1119 56.76 70.5599 56.784C69.9839 58.176 69.5279 59.28 69.3359 59.832C69.3119 59.856 68.8319 61.296 68.2079 63.096C67.7999 63.024 67.6079 63 67.3919 63C67.1519 63 66.9839 63.024 66.5039 63.096C67.0079 62.112 67.3679 61.344 68.3759 59.136C68.9759 57.768 69.5999 56.4 70.2239 54.984C70.8479 53.664 71.4239 52.392 72.0239 51C72.5759 49.776 73.1519 48.48 73.7279 47.184L73.9679 46.68H74.2079H74.4479ZM73.6319 49.776L73.4879 50.088L72.2879 52.752L71.1359 55.44L70.9919 55.776C72.0959 55.8 72.5519 55.8 73.7519 55.8C74.8079 55.8 75.3839 55.8 76.1999 55.776L76.0799 55.44C75.6959 54.552 75.3119 53.64 74.9519 52.752C74.5199 51.744 74.1599 50.928 73.6319 49.776Z" fill="#252525"/>
<path d="M86.0403 46.896C86.5203 46.968 86.8083 46.992 87.3363 46.992C87.7923 46.992 88.0083 46.968 88.3923 46.896C88.2003 49.416 88.1523 51.168 88.1523 55.92C88.1523 57.48 88.2243 60.456 88.3203 61.992C88.8003 62.016 89.0403 62.016 89.3763 62.016C91.1523 62.016 93.3843 61.848 94.7523 61.632C94.6803 61.944 94.6563 62.136 94.6563 62.424C94.6563 62.688 94.6803 62.832 94.7523 63.096C94.0083 63.048 91.2483 63 90.1683 63C89.4483 63 86.8803 63.048 86.0403 63.096C86.1603 61.68 86.2563 58.536 86.2563 55.032C86.2563 50.64 86.2323 49.56 86.0403 46.896Z" fill="#252525"/>
<path d="M99.3068 46.896C99.7868 46.968 100.075 46.992 100.603 46.992C101.059 46.992 101.275 46.968 101.659 46.896C101.467 49.416 101.419 51.168 101.419 55.92C101.419 57.48 101.491 60.456 101.587 61.992C102.067 62.016 102.307 62.016 102.643 62.016C104.419 62.016 106.651 61.848 108.019 61.632C107.947 61.944 107.923 62.136 107.923 62.424C107.923 62.688 107.947 62.832 108.019 63.096C107.275 63.048 104.515 63 103.435 63C102.715 63 100.147 63.048 99.3068 63.096C99.4268 61.68 99.5228 58.536 99.5228 55.032C99.5228 50.64 99.4988 49.56 99.3068 46.896Z" fill="#252525"/>
<path d="M120.613 46.896C121.093 46.968 121.357 46.992 121.789 46.992C122.221 46.992 122.485 46.968 122.965 46.896C122.821 48.576 122.725 51.432 122.725 54.216C122.725 58.296 122.797 61.272 122.965 63.096C122.389 63.024 122.101 63 121.765 63C121.405 63 121.141 63.024 120.613 63.096C120.757 61.2 120.829 58.272 120.829 53.76C120.829 51.096 120.733 48.384 120.613 46.896Z" fill="#252525"/>
<path d="M129.46 46.584H129.844C130.276 47.04 130.54 47.352 132.028 48.984C132.988 50.016 133.78 50.88 134.308 51.432C135.1 52.248 135.892 53.088 136.66 53.904C137.452 54.696 138.364 55.68 139.108 56.544C140.404 57.936 140.98 58.512 141.676 59.184L141.7 58.584C141.748 55.344 141.748 55.344 141.748 53.976C141.748 50.616 141.7 48.312 141.58 46.896C142.036 46.968 142.228 46.992 142.42 46.992C142.66 46.992 142.852 46.968 143.236 46.896C142.972 49.08 142.804 53.76 142.804 58.656C142.804 60.984 142.804 62.064 142.852 63.408H142.492C140.884 61.44 136.876 57 132.82 52.776C132.148 52.08 131.5 51.408 130.852 50.712L130.564 50.424L130.54 50.856C130.492 55.776 130.492 55.872 130.492 56.496C130.492 58.776 130.588 61.56 130.708 63.096C130.372 63.024 130.156 63 129.844 63C129.532 63 129.364 63.024 129.028 63.096C129.196 61.92 129.34 58.824 129.412 54.768C129.484 51.624 129.484 51.624 129.484 48.984C129.484 47.688 129.484 47.256 129.46 46.584Z" fill="#252525"/>
<path d="M165.479 46.584C171.071 46.584 174.407 49.776 174.407 55.128C174.407 60.192 170.951 63.408 165.503 63.408C160.007 63.408 156.623 60.192 156.623 54.984C156.623 49.8 160.031 46.584 165.479 46.584ZM165.503 47.352C163.319 47.352 161.471 48.264 160.319 49.92C159.431 51.168 158.999 52.872 158.999 54.984C158.999 57.12 159.431 58.8 160.319 60.072C161.423 61.704 163.319 62.64 165.503 62.64C169.559 62.64 172.031 59.76 172.031 55.104C172.031 52.872 171.623 51.24 170.711 49.92C169.607 48.288 167.687 47.352 165.503 47.352Z" fill="#252525"/>
<path d="M180.182 46.584H180.566C180.998 47.04 181.262 47.352 182.75 48.984C183.71 50.016 184.502 50.88 185.03 51.432C185.822 52.248 186.614 53.088 187.382 53.904C188.174 54.696 189.086 55.68 189.83 56.544C191.126 57.936 191.702 58.512 192.398 59.184L192.422 58.584C192.47 55.344 192.47 55.344 192.47 53.976C192.47 50.616 192.422 48.312 192.302 46.896C192.758 46.968 192.95 46.992 193.142 46.992C193.382 46.992 193.574 46.968 193.958 46.896C193.694 49.08 193.526 53.76 193.526 58.656C193.526 60.984 193.526 62.064 193.574 63.408H193.214C191.606 61.44 187.598 57 183.542 52.776C182.87 52.08 182.222 51.408 181.574 50.712L181.286 50.424L181.262 50.856C181.214 55.776 181.214 55.872 181.214 56.496C181.214 58.776 181.31 61.56 181.43 63.096C181.094 63.024 180.878 63 180.566 63C180.254 63 180.086 63.024 179.75 63.096C179.918 61.92 180.062 58.824 180.134 54.768C180.206 51.624 180.206 51.624 180.206 48.984C180.206 47.688 180.206 47.256 180.182 46.584Z" fill="#252525"/>
<path d="M208.64 63.096L208.28 63.072C205.496 63 205.496 63 204.968 63C203.576 63 200.672 63.048 200.024 63.096C200.192 61.464 200.288 57.696 200.288 53.712C200.288 50.64 200.216 48.216 200.12 46.896C200.888 46.968 200.912 46.968 204.416 46.992L206.36 46.968C207.68 46.968 208.064 46.944 208.52 46.896C208.472 47.232 208.448 47.4 208.448 47.592C208.448 47.76 208.472 47.928 208.52 48.288C207.2 48.144 204.872 48.048 203.168 48.048C202.904 48.048 202.688 48.048 202.376 48.072C202.352 48.24 202.328 49.176 202.256 50.88C202.184 53.184 202.184 53.184 202.184 53.52C202.184 53.568 202.184 53.784 202.208 54C202.544 54.024 202.688 54.024 203.072 54.024C204.872 54.024 207.056 53.928 207.968 53.808C207.896 54.168 207.872 54.36 207.872 54.576C207.872 54.816 207.896 54.96 207.968 55.224C206.96 55.128 205.136 55.056 203.024 55.056C202.712 55.056 202.52 55.056 202.184 55.08V55.488L202.208 56.688V58.464C202.208 58.944 202.208 59.544 202.232 60.216C202.256 60.96 202.28 61.44 202.28 61.56V61.944C202.616 61.968 202.832 61.968 203.12 61.968C205.088 61.968 207.584 61.824 208.64 61.656C208.592 61.968 208.568 62.136 208.568 62.376C208.568 62.64 208.592 62.784 208.64 63.096Z" fill="#252525"/>
<path d="M229.936 46.584C235.528 46.584 238.864 49.776 238.864 55.128C238.864 60.192 235.408 63.408 229.96 63.408C224.464 63.408 221.08 60.192 221.08 54.984C221.08 49.8 224.488 46.584 229.936 46.584ZM229.96 47.352C227.776 47.352 225.928 48.264 224.776 49.92C223.888 51.168 223.456 52.872 223.456 54.984C223.456 57.12 223.888 58.8 224.776 60.072C225.88 61.704 227.776 62.64 229.96 62.64C234.016 62.64 236.488 59.76 236.488 55.104C236.488 52.872 236.08 51.24 235.168 49.92C234.064 48.288 232.144 47.352 229.96 47.352Z" fill="#252525"/>
<path d="M244.207 46.896C244.711 46.968 244.999 46.992 245.383 46.992C245.791 46.992 246.055 46.968 246.559 46.896C246.367 48.72 246.223 52.32 246.223 55.368C246.223 57.984 246.415 59.112 247.015 60.12C247.903 61.608 249.295 62.304 251.287 62.304C253.831 62.304 255.679 61.032 256.231 58.968C256.543 57.72 256.615 56.472 256.615 52.368C256.615 49.344 256.591 48.648 256.471 46.896C257.119 46.992 257.215 46.992 257.407 46.992C257.647 46.992 257.839 46.968 258.223 46.896C258.079 47.76 257.887 51.624 257.839 54.072C257.767 56.928 257.743 57.384 257.599 58.248C257.287 60.072 256.615 61.248 255.319 62.184C254.215 62.976 252.679 63.408 250.927 63.408C248.839 63.408 247.039 62.832 245.863 61.776C244.687 60.696 244.231 59.4 244.231 57.024C244.231 56.736 244.255 55.152 244.303 53.544C244.327 52.752 244.327 52.08 244.327 51.432C244.327 49.752 244.279 48 244.207 46.896Z" fill="#252525"/>
<path d="M267.531 48.12H267.147C263.643 48.264 263.451 48.264 262.395 48.432C262.467 48.144 262.491 47.976 262.491 47.712C262.491 47.448 262.467 47.256 262.395 46.896C264.531 47.016 265.203 47.04 268.251 47.04C271.611 47.04 272.283 47.016 274.683 46.896C274.563 47.232 274.539 47.4 274.539 47.664C274.539 47.928 274.563 48.096 274.635 48.432C273.843 48.264 272.019 48.144 269.691 48.12C269.595 49.608 269.547 52.008 269.547 54.48C269.547 58.608 269.619 61.8 269.763 63.096C269.187 63.024 268.899 63 268.539 63C268.155 63 267.915 63.024 267.411 63.096C267.555 61.944 267.651 58.032 267.651 53.808C267.651 52.152 267.603 50.352 267.531 48.12Z" fill="#252525"/>
<path d="M281.103 55.056V55.488C281.127 59.88 281.175 61.992 281.295 63.096C280.767 63.024 280.479 63 280.143 63C279.807 63 279.519 63.024 278.943 63.096C279.087 61.512 279.207 56.784 279.207 52.632C279.207 51 279.111 47.976 279.039 46.896C279.735 46.968 279.735 46.968 280.647 46.968H281.319L283.335 46.992C284.991 46.968 285.951 46.968 286.287 46.968C286.791 46.968 286.887 46.944 287.439 46.896C287.391 47.232 287.367 47.4 287.367 47.592C287.367 47.76 287.391 47.928 287.439 48.288C286.095 48.168 283.743 48.048 282.135 48.048C281.895 48.048 281.679 48.048 281.295 48.072C281.271 48.288 281.247 49.224 281.175 50.88C281.103 53.184 281.103 53.184 281.103 53.496C281.103 53.544 281.103 53.784 281.127 54C281.511 54.024 281.655 54.024 281.991 54.024C283.743 54.024 285.927 53.928 286.887 53.808C286.815 54.168 286.791 54.36 286.791 54.576C286.791 54.816 286.815 54.96 286.887 55.224C285.663 55.104 284.031 55.032 282.111 55.032C281.823 55.032 281.559 55.032 281.103 55.056Z" fill="#252525"/>
<path d="M292.116 46.896C292.596 46.968 292.86 46.992 293.292 46.992C293.724 46.992 293.988 46.968 294.468 46.896C294.324 48.576 294.228 51.432 294.228 54.216C294.228 58.296 294.3 61.272 294.468 63.096C293.892 63.024 293.604 63 293.268 63C292.908 63 292.644 63.024 292.116 63.096C292.26 61.2 292.332 58.272 292.332 53.76C292.332 51.096 292.236 48.384 292.116 46.896Z" fill="#252525"/>
<path d="M303.909 48.12H303.525C300.021 48.264 299.829 48.264 298.773 48.432C298.845 48.144 298.869 47.976 298.869 47.712C298.869 47.448 298.845 47.256 298.773 46.896C300.909 47.016 301.581 47.04 304.629 47.04C307.989 47.04 308.661 47.016 311.061 46.896C310.941 47.232 310.917 47.4 310.917 47.664C310.917 47.928 310.941 48.096 311.013 48.432C310.221 48.264 308.397 48.144 306.069 48.12C305.973 49.608 305.925 52.008 305.925 54.48C305.925 58.608 305.997 61.8 306.141 63.096C305.565 63.024 305.277 63 304.917 63C304.533 63 304.293 63.024 303.789 63.096C303.933 61.944 304.029 58.032 304.029 53.808C304.029 52.152 303.981 50.352 303.909 48.12Z" fill="#252525"/>
<path d="M3 90L58 90" stroke="#252525"/>
<path d="M53.1499 52.55L53.5999 52.82L53.4199 53.63L52.9699 55.52L52.5199 57.41L52.3399 58.13C47.1199 61.73 40.2799 63.53 32.1799 63.53C13.1899 63.53 0.859863 51.29 0.859863 32.48C0.859863 12.77 13.9099 0.440002 34.6999 0.440002C42.0799 0.440002 48.6499 1.7 53.6899 4.13C52.8799 6.11 52.2499 8.54 51.8899 10.97L51.2599 11.24C46.6699 6.38 40.6399 3.77 33.8899 3.77C26.5999 3.77 20.2099 6.83 15.7999 12.32C11.7499 17.27 9.76987 23.75 9.76987 32.21C9.76987 40.85 11.8399 47.51 16.1599 52.46C20.4799 57.5 26.5999 60.2 33.7099 60.2C40.9099 60.2 47.1199 57.77 53.1499 52.55Z" fill="#252525"/>
</svg>
