<svg width="1421" height="212" viewBox="0 0 1421 212" fill="none" xmlns="http://www.w3.org/2000/svg">
<path d="M174.5 174.5L176 175.4L175.4 178.1L173.9 184.4L172.4 190.7L171.8 193.1C154.4 205.1 131.6 211.1 104.6 211.1C41.3002 211.1 0.200195 170.3 0.200195 107.6C0.200195 41.9 43.7002 0.800049 113 0.800049C137.6 0.800049 159.5 5.00005 176.3 13.1001C173.6 19.7 171.5 27.8 170.3 35.9L168.2 36.8C152.9 20.6 132.8 11.9 110.3 11.9C86.0002 11.9 64.7002 22.1 50.0002 40.4C36.5002 56.9001 29.9002 78.5 29.9002 106.7C29.9002 135.5 36.8002 157.7 51.2002 174.2C65.6002 191 86.0002 200 109.7 200C133.7 200 154.4 191.9 174.5 174.5Z" fill="#EDE5D3"/>
<path d="M239.192 4.70005C245.192 5.60004 248.792 5.90004 255.392 5.90004C261.092 5.90004 263.792 5.60004 268.592 4.70005C266.192 36.2 265.592 58.1 265.592 117.5C265.592 137 266.492 174.2 267.692 193.4C273.692 193.7 276.692 193.7 280.892 193.7C303.092 193.7 330.992 191.6 348.092 188.9C347.192 192.8 346.892 195.2 346.892 198.8C346.892 202.1 347.192 203.9 348.092 207.2C338.792 206.6 304.292 206 290.792 206C281.792 206 249.692 206.6 239.192 207.2C240.692 189.5 241.892 150.2 241.892 106.4C241.892 51.5 241.592 38.0001 239.192 4.70005Z" fill="#EDE5D3"/>
<path d="M495.092 2.00005L497.192 7.40004L517.592 55.4L538.592 104.9L560.792 156.2C573.392 185.9 576.392 192.5 583.292 207.2C576.992 206.3 573.692 206 567.692 206C561.992 206 558.692 206.3 553.292 207.2C547.892 191.6 531.392 149.3 522.092 128H516.692L482.492 127.7C482.192 127.7 453.392 128 446.492 128.3C439.292 145.7 433.592 159.5 431.192 166.4C430.892 166.7 424.892 184.7 417.092 207.2C411.992 206.3 409.592 206 406.892 206C403.892 206 401.792 206.3 395.792 207.2C402.092 194.9 406.592 185.3 419.192 157.7C426.692 140.6 434.492 123.5 442.292 105.8C450.092 89.3 457.292 73.4 464.792 56.0001C471.692 40.7001 478.892 24.5 486.092 8.30004L489.092 2.00005H492.092H495.092ZM484.892 40.7001L483.092 44.6L468.092 77.9L453.692 111.5L451.892 115.7C465.692 116 471.392 116 486.392 116C499.592 116 506.792 116 516.992 115.7L515.492 111.5C510.692 100.4 505.892 89 501.392 77.9C495.992 65.3 491.492 55.1 484.892 40.7001Z" fill="#EDE5D3"/>
<path d="M738.327 39.5H735.327C729.627 23 714.927 12.5 697.827 12.5C676.827 12.5 660.927 28.1 660.927 48.5C660.927 59 665.727 69.2 674.127 75.5C681.327 80.6001 690.327 85.4 708.027 92.6C728.127 101 733.827 104.3 741.027 111.5C750.027 120.2 754.527 131.6 754.527 145.4C754.527 182.6 723.627 211.1 683.427 211.1C664.227 211.1 646.827 205.4 633.027 194.3C637.227 181.4 638.127 176.6 639.027 167.6H642.027C650.127 185.6 669.327 197.9 688.827 197.9C713.127 197.9 731.127 180.2 731.127 155.6C731.127 145.1 727.527 136.7 720.627 130.1C713.427 123.5 708.927 121.1 687.927 112.4C651.627 97.4001 638.127 82.4 638.127 56.6C638.127 23.3 663.927 0.800049 701.427 0.800049C718.827 0.800049 732.027 5.00005 746.427 14.9C742.827 22.7001 739.827 32.3 738.327 39.5Z" fill="#EDE5D3"/>
<path d="M912.362 39.5H909.362C903.662 23 888.962 12.5 871.862 12.5C850.862 12.5 834.962 28.1 834.962 48.5C834.962 59 839.762 69.2 848.162 75.5C855.362 80.6001 864.362 85.4 882.062 92.6C902.162 101 907.862 104.3 915.062 111.5C924.062 120.2 928.562 131.6 928.562 145.4C928.562 182.6 897.662 211.1 857.462 211.1C838.262 211.1 820.862 205.4 807.062 194.3C811.262 181.4 812.162 176.6 813.062 167.6H816.062C824.162 185.6 843.362 197.9 862.862 197.9C887.162 197.9 905.162 180.2 905.162 155.6C905.162 145.1 901.562 136.7 894.662 130.1C887.462 123.5 882.962 121.1 861.962 112.4C825.662 97.4001 812.162 82.4 812.162 56.6C812.162 23.3 837.962 0.800049 875.462 0.800049C892.862 0.800049 906.062 5.00005 920.462 14.9C916.862 22.7001 913.862 32.3 912.362 39.5Z" fill="#EDE5D3"/>
<path d="M994.22 4.70005C1000.22 5.60004 1003.52 5.90004 1008.92 5.90004C1014.32 5.90004 1017.62 5.60004 1023.62 4.70005C1021.82 25.7001 1020.62 61.4 1020.62 96.2C1020.62 147.2 1021.52 184.4 1023.62 207.2C1016.42 206.3 1012.82 206 1008.62 206C1004.12 206 1000.82 206.3 994.22 207.2C996.02 183.5 996.92 146.9 996.92 90.5C996.92 57.2 995.72 23.3 994.22 4.70005Z" fill="#EDE5D3"/>
<path d="M1264.71 174.5L1266.21 175.4L1265.61 178.1L1264.11 184.4L1262.61 190.7L1262.01 193.1C1244.61 205.1 1221.81 211.1 1194.81 211.1C1131.51 211.1 1090.41 170.3 1090.41 107.6C1090.41 41.9 1133.91 0.800049 1203.21 0.800049C1227.81 0.800049 1249.71 5.00005 1266.51 13.1001C1263.81 19.7 1261.71 27.8 1260.51 35.9L1258.41 36.8C1243.11 20.6 1223.01 11.9 1200.51 11.9C1176.21 11.9 1154.91 22.1 1140.21 40.4C1126.71 56.9001 1120.11 78.5 1120.11 106.7C1120.11 135.5 1127.01 157.7 1141.41 174.2C1155.81 191 1176.21 200 1199.91 200C1223.91 200 1244.61 191.9 1264.71 174.5Z" fill="#EDE5D3"/>
<path d="M1410.97 2.00005L1413.07 7.40004L1433.47 55.4L1454.47 104.9L1476.67 156.2C1489.27 185.9 1492.27 192.5 1499.17 207.2C1492.87 206.3 1489.57 206 1483.57 206C1477.87 206 1474.57 206.3 1469.17 207.2C1463.77 191.6 1447.27 149.3 1437.97 128H1432.57L1398.37 127.7C1398.07 127.7 1369.27 128 1362.37 128.3C1355.17 145.7 1349.47 159.5 1347.07 166.4C1346.77 166.7 1340.77 184.7 1332.97 207.2C1327.87 206.3 1325.47 206 1322.77 206C1319.77 206 1317.67 206.3 1311.67 207.2C1317.97 194.9 1322.47 185.3 1335.07 157.7C1342.57 140.6 1350.37 123.5 1358.17 105.8C1365.97 89.3 1373.17 73.4 1380.67 56.0001C1387.57 40.7001 1394.77 24.5 1401.97 8.30004L1404.97 2.00005H1407.97H1410.97ZM1400.77 40.7001L1398.97 44.6L1383.97 77.9L1369.57 111.5L1367.77 115.7C1381.57 116 1387.27 116 1402.27 116C1415.47 116 1422.67 116 1432.87 115.7L1431.37 111.5C1426.57 100.4 1421.77 89 1417.27 77.9C1411.87 65.3 1407.37 55.1 1400.77 40.7001Z" fill="#EDE5D3"/>
<path d="M1555.88 4.70005C1561.88 5.60004 1565.48 5.90004 1572.08 5.90004C1577.78 5.90004 1580.48 5.60004 1585.28 4.70005C1582.88 36.2 1582.28 58.1 1582.28 117.5C1582.28 137 1583.18 174.2 1584.38 193.4C1590.38 193.7 1593.38 193.7 1597.58 193.7C1619.78 193.7 1647.68 191.6 1664.78 188.9C1663.88 192.8 1663.58 195.2 1663.58 198.8C1663.58 202.1 1663.88 203.9 1664.78 207.2C1655.48 206.6 1620.98 206 1607.48 206C1598.48 206 1566.38 206.6 1555.88 207.2C1557.38 189.5 1558.58 150.2 1558.58 106.4C1558.58 51.5 1558.28 38.0001 1555.88 4.70005Z" fill="#EDE5D3"/>
</svg>
