<svg width="1776" height="212" viewBox="0 0 1776 212" fill="none" xmlns="http://www.w3.org/2000/svg">
<path d="M0.200195 4.70007C8.60019 5.60006 13.4002 5.90005 23.0002 5.90005C28.4002 5.90005 39.2002 5.60005 54.2002 5.30005C65.6002 5.00005 78.2002 4.70007 86.9002 4.70007C121.7 4.70007 141.5 11.0001 159.2 27.5001C177.5 44.6001 187.1 68.9001 187.1 98.3C187.1 134.3 173 165.5 148.4 185C128 200.9 105.5 207.2 68.0002 207.2C62.9002 207.2 51.8002 206.9 41.6002 206.6C32.3002 206.3 25.7002 206 21.5002 206C14.0002 206 8.9002 206.3 0.200195 207.2C1.70019 194.6 3.20019 143.6 3.20019 104.3C3.20019 61.4 2.3002 27.5001 0.200195 4.70007ZM28.7002 193.7C39.2002 195.5 46.1002 196.1 57.2002 196.1C96.5002 196.1 116.9 190.1 133.1 173.3C149.3 156.8 157.4 132.5 157.4 101.6C157.4 72.2001 149.9 49.7 134.9 35C120.5 20.6 103.4 16.1001 65.3002 16.1001C49.7002 16.1001 41.3002 16.7 28.4002 18.2C27.8002 29.6001 26.9002 76.7001 26.9002 101C26.9002 138.8 27.5002 179.6 28.7002 193.7Z" fill="#EDE5D3"/>
<path d="M355.623 0.800049C425.523 0.800049 467.223 40.7001 467.223 107.6C467.223 170.9 424.023 211.1 355.923 211.1C287.223 211.1 244.923 170.9 244.923 105.8C244.923 41.0001 287.523 0.800049 355.623 0.800049ZM355.923 10.4001C328.623 10.4001 305.523 21.8001 291.123 42.5001C280.023 58.1001 274.623 79.4 274.623 105.8C274.623 132.5 280.023 153.5 291.123 169.4C304.923 189.8 328.623 201.5 355.923 201.5C406.623 201.5 437.523 165.5 437.523 107.3C437.523 79.4001 432.423 59.0001 421.023 42.5001C407.223 22.1001 383.223 10.4001 355.923 10.4001Z" fill="#EDE5D3"/>
<path d="M534.013 4.70007C540.013 5.60006 543.613 5.90005 550.213 5.90005C555.913 5.90005 558.613 5.60006 563.413 4.70007C561.013 36.2001 560.413 58.1001 560.413 117.5C560.413 137 561.313 174.2 562.513 193.4C568.513 193.7 571.513 193.7 575.713 193.7C597.913 193.7 625.813 191.6 642.913 188.9C642.013 192.8 641.713 195.2 641.713 198.8C641.713 202.1 642.013 203.9 642.913 207.2C633.613 206.6 599.113 206 585.613 206C576.613 206 544.513 206.6 534.013 207.2C535.513 189.5 536.713 150.2 536.713 106.4C536.713 51.5 536.413 38.0001 534.013 4.70007Z" fill="#EDE5D3"/>
<path d="M699.845 4.70007C705.845 5.60006 709.445 5.90005 716.045 5.90005C721.745 5.90005 724.445 5.60006 729.245 4.70007C726.845 36.2001 726.245 58.1001 726.245 117.5C726.245 137 727.145 174.2 728.345 193.4C734.345 193.7 737.345 193.7 741.545 193.7C763.745 193.7 791.645 191.6 808.745 188.9C807.845 192.8 807.545 195.2 807.545 198.8C807.545 202.1 807.845 203.9 808.745 207.2C799.445 206.6 764.945 206 751.445 206C742.445 206 710.345 206.6 699.845 207.2C701.345 189.5 702.545 150.2 702.545 106.4C702.545 51.5 702.245 38.0001 699.845 4.70007Z" fill="#EDE5D3"/>
<path d="M872.825 92.3L856.625 65.6001C835.325 29.9001 823.025 9.80006 819.725 4.70007C828.125 5.60006 832.325 5.90005 837.725 5.90005C842.825 5.90005 846.125 5.60006 852.125 4.70007C862.325 26.3001 898.925 91.4001 908.525 105.5C921.425 85.4001 957.425 20.6001 964.325 4.70007C968.225 5.60006 970.325 5.90005 974.225 5.90005C978.125 5.90005 981.425 5.60006 987.425 4.70007C961.625 41.6001 924.425 101.6 916.325 120.2C916.025 124.7 916.025 129.2 916.025 130.4V146.9L916.625 176.6C916.625 192.8 917.225 199.7 918.425 207.2C907.325 206 905.825 206 903.125 206C899.525 206 896.825 206.3 889.025 207.2C890.825 194.6 891.725 174.2 891.725 133.4V123.8L888.125 118.1L872.825 92.3Z" fill="#EDE5D3"/>
<path d="M1236.49 39.5001H1233.49C1227.79 23.0001 1213.09 12.5001 1195.99 12.5001C1174.99 12.5001 1159.09 28.1001 1159.09 48.5001C1159.09 59.0001 1163.89 69.2001 1172.29 75.5001C1179.49 80.6001 1188.49 85.4001 1206.19 92.6001C1226.29 101 1231.99 104.3 1239.19 111.5C1248.19 120.2 1252.69 131.6 1252.69 145.4C1252.69 182.6 1221.79 211.1 1181.59 211.1C1162.39 211.1 1144.99 205.4 1131.19 194.3C1135.39 181.4 1136.29 176.6 1137.19 167.6H1140.19C1148.29 185.6 1167.49 197.9 1186.99 197.9C1211.29 197.9 1229.29 180.2 1229.29 155.6C1229.29 145.1 1225.69 136.7 1218.79 130.1C1211.59 123.5 1207.09 121.1 1186.09 112.4C1149.79 97.4001 1136.29 82.4001 1136.29 56.6001C1136.29 23.3001 1162.09 0.800049 1199.59 0.800049C1216.99 0.800049 1230.19 5.00006 1244.59 14.9001C1240.99 22.7001 1237.99 32.3 1236.49 39.5001Z" fill="#EDE5D3"/>
<path d="M1361.45 20.0001H1356.65C1312.85 21.8001 1310.45 21.8001 1297.25 23.9001C1298.15 20.3001 1298.45 18.2 1298.45 14.9001C1298.45 11.6001 1298.15 9.20007 1297.25 4.70007C1323.95 6.20007 1332.35 6.50006 1370.45 6.50006C1412.45 6.50006 1420.85 6.20007 1450.85 4.70007C1449.35 8.90007 1449.05 11.0001 1449.05 14.3C1449.05 17.6001 1449.35 19.7001 1450.25 23.9001C1440.35 21.8001 1417.55 20.3001 1388.45 20.0001C1387.25 38.6001 1386.65 68.6001 1386.65 99.5001C1386.65 151.1 1387.55 191 1389.35 207.2C1382.15 206.3 1378.55 206 1374.05 206C1369.25 206 1366.25 206.3 1359.95 207.2C1361.75 192.8 1362.95 143.9 1362.95 91.1001C1362.95 70.4001 1362.35 47.9001 1361.45 20.0001Z" fill="#EDE5D3"/>
<path d="M1546.41 92.3L1530.21 65.6001C1508.91 29.9001 1496.61 9.80006 1493.31 4.70007C1501.71 5.60006 1505.91 5.90005 1511.31 5.90005C1516.41 5.90005 1519.71 5.60006 1525.71 4.70007C1535.91 26.3001 1572.51 91.4001 1582.11 105.5C1595.01 85.4001 1631.01 20.6001 1637.91 4.70007C1641.81 5.60006 1643.91 5.90005 1647.81 5.90005C1651.71 5.90005 1655.01 5.60006 1661.01 4.70007C1635.21 41.6001 1598.01 101.6 1589.91 120.2C1589.61 124.7 1589.61 129.2 1589.61 130.4V146.9L1590.21 176.6C1590.21 192.8 1590.81 199.7 1592.01 207.2C1580.91 206 1579.41 206 1576.71 206C1573.11 206 1570.41 206.3 1562.61 207.2C1564.41 194.6 1565.31 174.2 1565.31 133.4V123.8L1561.71 118.1L1546.41 92.3Z" fill="#EDE5D3"/>
<path d="M1714.17 4.70007C1720.17 5.60006 1723.77 5.90005 1730.37 5.90005C1736.07 5.90005 1738.77 5.60006 1743.57 4.70007C1741.17 36.2001 1740.57 58.1001 1740.57 117.5C1740.57 137 1741.47 174.2 1742.67 193.4C1748.67 193.7 1751.67 193.7 1755.87 193.7C1778.07 193.7 1805.97 191.6 1823.07 188.9C1822.17 192.8 1821.87 195.2 1821.87 198.8C1821.87 202.1 1822.17 203.9 1823.07 207.2C1813.77 206.6 1779.27 206 1765.77 206C1756.77 206 1724.67 206.6 1714.17 207.2C1715.67 189.5 1716.87 150.2 1716.87 106.4C1716.87 51.5 1716.57 38.0001 1714.17 4.70007Z" fill="#EDE5D3"/>
<path d="M1987.7 207.2L1983.2 206.9C1948.4 206 1948.4 206 1941.8 206C1924.4 206 1888.1 206.6 1880 207.2C1882.1 186.8 1883.3 139.7 1883.3 89.9001C1883.3 51.5 1882.4 21.2001 1881.2 4.70007C1890.8 5.60006 1891.1 5.60006 1934.9 5.90005L1959.2 5.60004C1975.7 5.60004 1980.51 5.30007 1986.2 4.70007C1985.6 8.90007 1985.3 11 1985.3 13.4001C1985.3 15.5 1985.6 17.6 1986.2 22.1C1969.7 20.3 1940.6 19.1001 1919.3 19.1001C1916 19.1001 1913.3 19.1001 1909.4 19.4001C1909.1 21.5001 1908.8 33.2001 1907.9 54.5001C1907 83.3001 1907 83.3001 1907 87.5001C1907 88.1001 1907 90.8001 1907.3 93.5001C1911.5 93.8001 1913.3 93.8 1918.1 93.8C1940.6 93.8 1967.9 92.6001 1979.3 91.1001C1978.4 95.6001 1978.1 98 1978.1 100.7C1978.1 103.7 1978.4 105.5 1979.3 108.8C1966.7 107.6 1943.9 106.7 1917.5 106.7C1913.6 106.7 1911.2 106.7 1907 107V112.1L1907.3 127.1V149.3C1907.3 155.3 1907.3 162.8 1907.6 171.2C1907.91 180.5 1908.2 186.5 1908.2 188V192.8C1912.4 193.1 1915.1 193.1 1918.7 193.1C1943.3 193.1 1974.51 191.3 1987.7 189.2C1987.1 193.1 1986.8 195.2 1986.8 198.2C1986.8 201.5 1987.1 203.3 1987.7 207.2Z" fill="#EDE5D3"/>
</svg>
