<svg width="228" height="91" viewBox="0 0 228 91" fill="none" xmlns="http://www.w3.org/2000/svg">
<path d="M69.0156 16.896C69.4956 16.968 69.7836 16.992 70.3116 16.992C70.7676 16.992 70.9836 16.968 71.3676 16.896C71.1756 19.416 71.1276 21.168 71.1276 25.92C71.1276 27.48 71.1996 30.456 71.2956 31.992C71.7756 32.016 72.0156 32.016 72.3516 32.016C74.1276 32.016 76.3596 31.848 77.7276 31.632C77.6556 31.944 77.6316 32.136 77.6316 32.424C77.6316 32.688 77.6556 32.832 77.7276 33.096C76.9836 33.048 74.2236 33 73.1436 33C72.4236 33 69.8556 33.048 69.0156 33.096C69.1356 31.68 69.2316 28.536 69.2316 25.032C69.2316 20.64 69.2076 19.56 69.0156 16.896Z" fill="#252525"/>
<path d="M89.4876 16.68L89.6556 17.112L91.2876 20.952L92.9676 24.912L94.7436 29.016C95.7516 31.392 95.9916 31.92 96.5436 33.096C96.0396 33.024 95.7756 33 95.2956 33C94.8396 33 94.5756 33.024 94.1436 33.096C93.7116 31.848 92.3916 28.464 91.6476 26.76H91.2156L88.4796 26.736C88.4556 26.736 86.1516 26.76 85.5996 26.784C85.0236 28.176 84.5676 29.28 84.3756 29.832C84.3516 29.856 83.8716 31.296 83.2476 33.096C82.8396 33.024 82.6476 33 82.4316 33C82.1916 33 82.0236 33.024 81.5436 33.096C82.0476 32.112 82.4076 31.344 83.4156 29.136C84.0156 27.768 84.6396 26.4 85.2636 24.984C85.8876 23.664 86.4636 22.392 87.0636 21C87.6156 19.776 88.1916 18.48 88.7676 17.184L89.0076 16.68H89.2476H89.4876ZM88.6716 19.776L88.5276 20.088L87.3276 22.752L86.1756 25.44L86.0316 25.776C87.1356 25.8 87.5916 25.8 88.7916 25.8C89.8476 25.8 90.4236 25.8 91.2396 25.776L91.1196 25.44C90.7356 24.552 90.3516 23.64 89.9916 22.752C89.5596 21.744 89.1996 20.928 88.6716 19.776Z" fill="#252525"/>
<path d="M108.946 19.68H108.706C108.25 18.36 107.074 17.52 105.706 17.52C104.026 17.52 102.754 18.768 102.754 20.4C102.754 21.24 103.138 22.056 103.81 22.56C104.386 22.968 105.106 23.352 106.522 23.928C108.13 24.6 108.586 24.864 109.162 25.44C109.882 26.136 110.242 27.048 110.242 28.152C110.242 31.128 107.77 33.408 104.554 33.408C103.018 33.408 101.626 32.952 100.522 32.064C100.858 31.032 100.93 30.648 101.002 29.928H101.242C101.89 31.368 103.426 32.352 104.986 32.352C106.93 32.352 108.37 30.936 108.37 28.968C108.37 28.128 108.082 27.456 107.53 26.928C106.954 26.4 106.594 26.208 104.914 25.512C102.01 24.312 100.93 23.112 100.93 21.048C100.93 18.384 102.994 16.584 105.994 16.584C107.386 16.584 108.442 16.92 109.594 17.712C109.306 18.336 109.066 19.104 108.946 19.68Z" fill="#252525"/>
<path d="M122.869 19.68H122.629C122.173 18.36 120.997 17.52 119.629 17.52C117.949 17.52 116.677 18.768 116.677 20.4C116.677 21.24 117.061 22.056 117.733 22.56C118.309 22.968 119.029 23.352 120.445 23.928C122.053 24.6 122.509 24.864 123.085 25.44C123.805 26.136 124.165 27.048 124.165 28.152C124.165 31.128 121.693 33.408 118.477 33.408C116.941 33.408 115.549 32.952 114.445 32.064C114.781 31.032 114.853 30.648 114.925 29.928H115.165C115.813 31.368 117.349 32.352 118.909 32.352C120.853 32.352 122.293 30.936 122.293 28.968C122.293 28.128 122.005 27.456 121.453 26.928C120.877 26.4 120.517 26.208 118.837 25.512C115.933 24.312 114.853 23.112 114.853 21.048C114.853 18.384 116.917 16.584 119.917 16.584C121.309 16.584 122.365 16.92 123.517 17.712C123.229 18.336 122.989 19.104 122.869 19.68Z" fill="#252525"/>
<path d="M129.418 16.896C129.898 16.968 130.162 16.992 130.594 16.992C131.026 16.992 131.29 16.968 131.77 16.896C131.626 18.576 131.53 21.432 131.53 24.216C131.53 28.296 131.602 31.272 131.77 33.096C131.194 33.024 130.906 33 130.57 33C130.21 33 129.946 33.024 129.418 33.096C129.562 31.2 129.634 28.272 129.634 23.76C129.634 21.096 129.538 18.384 129.418 16.896Z" fill="#252525"/>
<path d="M151.057 30.48L151.177 30.552L151.129 30.768L151.009 31.272L150.889 31.776L150.841 31.968C149.449 32.928 147.625 33.408 145.465 33.408C140.401 33.408 137.113 30.144 137.113 25.128C137.113 19.872 140.593 16.584 146.137 16.584C148.105 16.584 149.857 16.92 151.201 17.568C150.985 18.096 150.817 18.744 150.721 19.392L150.553 19.464C149.329 18.168 147.721 17.472 145.921 17.472C143.977 17.472 142.273 18.288 141.097 19.752C140.017 21.072 139.489 22.8 139.489 25.056C139.489 27.36 140.041 29.136 141.193 30.456C142.345 31.8 143.977 32.52 145.873 32.52C147.793 32.52 149.449 31.872 151.057 30.48Z" fill="#252525"/>
<path d="M162.758 16.68L162.926 17.112L164.558 20.952L166.238 24.912L168.014 29.016C169.022 31.392 169.262 31.92 169.814 33.096C169.31 33.024 169.046 33 168.566 33C168.11 33 167.846 33.024 167.414 33.096C166.982 31.848 165.662 28.464 164.918 26.76H164.486L161.75 26.736C161.726 26.736 159.422 26.76 158.87 26.784C158.294 28.176 157.838 29.28 157.646 29.832C157.622 29.856 157.142 31.296 156.518 33.096C156.11 33.024 155.918 33 155.702 33C155.462 33 155.294 33.024 154.814 33.096C155.318 32.112 155.678 31.344 156.686 29.136C157.286 27.768 157.91 26.4 158.534 24.984C159.158 23.664 159.734 22.392 160.334 21C160.886 19.776 161.462 18.48 162.038 17.184L162.278 16.68H162.518H162.758ZM161.942 19.776L161.798 20.088L160.598 22.752L159.446 25.44L159.302 25.776C160.406 25.8 160.862 25.8 162.062 25.8C163.118 25.8 163.694 25.8 164.51 25.776L164.39 25.44C164.006 24.552 163.622 23.64 163.262 22.752C162.83 21.744 162.47 20.928 161.942 19.776Z" fill="#252525"/>
<path d="M174.35 16.896C174.83 16.968 175.118 16.992 175.646 16.992C176.102 16.992 176.318 16.968 176.702 16.896C176.51 19.416 176.462 21.168 176.462 25.92C176.462 27.48 176.534 30.456 176.63 31.992C177.11 32.016 177.35 32.016 177.686 32.016C179.462 32.016 181.694 31.848 183.062 31.632C182.99 31.944 182.966 32.136 182.966 32.424C182.966 32.688 182.99 32.832 183.062 33.096C182.318 33.048 179.558 33 178.478 33C177.758 33 175.19 33.048 174.35 33.096C174.47 31.68 174.566 28.536 174.566 25.032C174.566 20.64 174.542 19.56 174.35 16.896Z" fill="#252525"/>
<path d="M68.0156 47.896C68.6876 47.968 69.0716 47.992 69.8396 47.992C70.2716 47.992 71.1356 47.968 72.3356 47.944C73.2476 47.92 74.2556 47.896 74.9516 47.896C77.7356 47.896 79.3196 48.4 80.7356 49.72C82.1996 51.088 82.9676 53.032 82.9676 55.384C82.9676 58.264 81.8396 60.76 79.8716 62.32C78.2396 63.592 76.4396 64.096 73.4396 64.096C73.0316 64.096 72.1436 64.072 71.3276 64.048C70.5836 64.024 70.0556 64 69.7196 64C69.1196 64 68.7116 64.024 68.0156 64.096C68.1356 63.088 68.2556 59.008 68.2556 55.864C68.2556 52.432 68.1836 49.72 68.0156 47.896ZM70.2956 63.016C71.1356 63.16 71.6876 63.208 72.5756 63.208C75.7196 63.208 77.3516 62.728 78.6476 61.384C79.9436 60.064 80.5916 58.12 80.5916 55.648C80.5916 53.296 79.9916 51.496 78.7916 50.32C77.6396 49.168 76.2716 48.808 73.2236 48.808C71.9756 48.808 71.3036 48.856 70.2716 48.976C70.2236 49.888 70.1516 53.656 70.1516 55.6C70.1516 58.624 70.1996 61.888 70.2956 63.016Z" fill="#252525"/>
<path d="M96.4494 47.584C102.041 47.584 105.377 50.776 105.377 56.128C105.377 61.192 101.921 64.408 96.4734 64.408C90.9774 64.408 87.5934 61.192 87.5934 55.984C87.5934 50.8 91.0014 47.584 96.4494 47.584ZM96.4734 48.352C94.2894 48.352 92.4414 49.264 91.2894 50.92C90.4014 52.168 89.9694 53.872 89.9694 55.984C89.9694 58.12 90.4014 59.8 91.2894 61.072C92.3934 62.704 94.2894 63.64 96.4734 63.64C100.529 63.64 103.001 60.76 103.001 56.104C103.001 53.872 102.593 52.24 101.681 50.92C100.577 49.288 98.6574 48.352 96.4734 48.352Z" fill="#252525"/>
<path d="M110.721 47.896C111.201 47.968 111.489 47.992 112.017 47.992C112.473 47.992 112.689 47.968 113.073 47.896C112.881 50.416 112.833 52.168 112.833 56.92C112.833 58.48 112.905 61.456 113.001 62.992C113.481 63.016 113.721 63.016 114.057 63.016C115.833 63.016 118.065 62.848 119.433 62.632C119.361 62.944 119.337 63.136 119.337 63.424C119.337 63.688 119.361 63.832 119.433 64.096C118.689 64.048 115.929 64 114.849 64C114.129 64 111.561 64.048 110.721 64.096C110.841 62.68 110.937 59.536 110.937 56.032C110.937 51.64 110.913 50.56 110.721 47.896Z" fill="#252525"/>
<path d="M123.987 47.896C124.467 47.968 124.755 47.992 125.283 47.992C125.739 47.992 125.955 47.968 126.339 47.896C126.147 50.416 126.099 52.168 126.099 56.92C126.099 58.48 126.171 61.456 126.267 62.992C126.747 63.016 126.987 63.016 127.323 63.016C129.099 63.016 131.331 62.848 132.699 62.632C132.627 62.944 132.603 63.136 132.603 63.424C132.603 63.688 132.627 63.832 132.699 64.096C131.955 64.048 129.195 64 128.115 64C127.395 64 124.827 64.048 123.987 64.096C124.107 62.68 124.203 59.536 124.203 56.032C124.203 51.64 124.179 50.56 123.987 47.896Z" fill="#252525"/>
<path d="M137.826 54.904L136.53 52.768C134.826 49.912 133.842 48.304 133.578 47.896C134.25 47.968 134.586 47.992 135.018 47.992C135.426 47.992 135.69 47.968 136.17 47.896C136.986 49.624 139.914 54.832 140.682 55.96C141.714 54.352 144.594 49.168 145.146 47.896C145.458 47.968 145.626 47.992 145.938 47.992C146.25 47.992 146.514 47.968 146.994 47.896C144.93 50.848 141.954 55.648 141.306 57.136C141.282 57.496 141.282 57.856 141.282 57.952V59.272L141.33 61.648C141.33 62.944 141.378 63.496 141.474 64.096C140.586 64 140.466 64 140.25 64C139.962 64 139.746 64.024 139.122 64.096C139.266 63.088 139.338 61.456 139.338 58.192V57.424L139.05 56.968L137.826 54.904Z" fill="#252525"/>
<path d="M166.919 50.68H166.679C166.223 49.36 165.047 48.52 163.679 48.52C161.999 48.52 160.727 49.768 160.727 51.4C160.727 52.24 161.111 53.056 161.783 53.56C162.359 53.968 163.079 54.352 164.495 54.928C166.103 55.6 166.559 55.864 167.135 56.44C167.855 57.136 168.215 58.048 168.215 59.152C168.215 62.128 165.743 64.408 162.527 64.408C160.991 64.408 159.599 63.952 158.495 63.064C158.831 62.032 158.903 61.648 158.975 60.928H159.215C159.863 62.368 161.399 63.352 162.959 63.352C164.903 63.352 166.343 61.936 166.343 59.968C166.343 59.128 166.055 58.456 165.503 57.928C164.927 57.4 164.567 57.208 162.887 56.512C159.983 55.312 158.903 54.112 158.903 52.048C158.903 49.384 160.967 47.584 163.967 47.584C165.359 47.584 166.415 47.92 167.567 48.712C167.279 49.336 167.039 50.104 166.919 50.68Z" fill="#252525"/>
<path d="M176.916 49.12H176.532C173.028 49.264 172.836 49.264 171.78 49.432C171.852 49.144 171.876 48.976 171.876 48.712C171.876 48.448 171.852 48.256 171.78 47.896C173.916 48.016 174.588 48.04 177.636 48.04C180.996 48.04 181.668 48.016 184.068 47.896C183.948 48.232 183.924 48.4 183.924 48.664C183.924 48.928 183.948 49.096 184.02 49.432C183.228 49.264 181.404 49.144 179.076 49.12C178.98 50.608 178.932 53.008 178.932 55.48C178.932 59.608 179.004 62.8 179.148 64.096C178.572 64.024 178.284 64 177.924 64C177.54 64 177.3 64.024 176.796 64.096C176.94 62.944 177.036 59.032 177.036 54.808C177.036 53.152 176.988 51.352 176.916 49.12Z" fill="#252525"/>
<path d="M191.712 54.904L190.416 52.768C188.712 49.912 187.728 48.304 187.464 47.896C188.136 47.968 188.472 47.992 188.904 47.992C189.312 47.992 189.576 47.968 190.056 47.896C190.872 49.624 193.8 54.832 194.568 55.96C195.6 54.352 198.48 49.168 199.032 47.896C199.344 47.968 199.512 47.992 199.824 47.992C200.136 47.992 200.4 47.968 200.88 47.896C198.816 50.848 195.84 55.648 195.192 57.136C195.168 57.496 195.168 57.856 195.168 57.952V59.272L195.216 61.648C195.216 62.944 195.264 63.496 195.36 64.096C194.472 64 194.352 64 194.136 64C193.848 64 193.632 64.024 193.008 64.096C193.152 63.088 193.224 61.456 193.224 58.192V57.424L192.936 56.968L191.712 54.904Z" fill="#252525"/>
<path d="M205.133 47.896C205.613 47.968 205.901 47.992 206.429 47.992C206.885 47.992 207.101 47.968 207.485 47.896C207.293 50.416 207.245 52.168 207.245 56.92C207.245 58.48 207.317 61.456 207.413 62.992C207.893 63.016 208.133 63.016 208.469 63.016C210.245 63.016 212.477 62.848 213.845 62.632C213.773 62.944 213.749 63.136 213.749 63.424C213.749 63.688 213.773 63.832 213.845 64.096C213.101 64.048 210.341 64 209.261 64C208.541 64 205.973 64.048 205.133 64.096C205.253 62.68 205.349 59.536 205.349 56.032C205.349 51.64 205.325 50.56 205.133 47.896Z" fill="#252525"/>
<path d="M227.016 64.096L226.656 64.072C223.872 64 223.872 64 223.344 64C221.952 64 219.048 64.048 218.4 64.096C218.568 62.464 218.664 58.696 218.664 54.712C218.664 51.64 218.592 49.216 218.496 47.896C219.264 47.968 219.288 47.968 222.792 47.992L224.736 47.968C226.056 47.968 226.44 47.944 226.896 47.896C226.848 48.232 226.824 48.4 226.824 48.592C226.824 48.76 226.848 48.928 226.896 49.288C225.576 49.144 223.248 49.048 221.544 49.048C221.28 49.048 221.064 49.048 220.752 49.072C220.728 49.24 220.704 50.176 220.632 51.88C220.56 54.184 220.56 54.184 220.56 54.52C220.56 54.568 220.56 54.784 220.584 55C220.92 55.024 221.064 55.024 221.448 55.024C223.248 55.024 225.432 54.928 226.344 54.808C226.272 55.168 226.248 55.36 226.248 55.576C226.248 55.816 226.272 55.96 226.344 56.224C225.336 56.128 223.512 56.056 221.4 56.056C221.088 56.056 220.896 56.056 220.56 56.08V56.488L220.584 57.688V59.464C220.584 59.944 220.584 60.544 220.608 61.216C220.632 61.96 220.656 62.44 220.656 62.56V62.944C220.992 62.968 221.208 62.968 221.496 62.968C223.464 62.968 225.96 62.824 227.016 62.656C226.968 62.968 226.944 63.136 226.944 63.376C226.944 63.64 226.968 63.784 227.016 64.096Z" fill="#252525"/>
<path d="M3 90L58 90" stroke="#252525"/>
<path d="M53.1499 52.5499L53.5999 52.8199L53.4199 53.6299L52.9699 55.5199L52.5199 57.4099L52.3399 58.1299C47.1199 61.7299 40.2799 63.5299 32.1799 63.5299C13.1899 63.5299 0.859863 51.2899 0.859863 32.4799C0.859863 12.7699 13.9099 0.439941 34.6999 0.439941C42.0799 0.439941 48.6499 1.69994 53.6899 4.12994C52.8799 6.10994 52.2499 8.53994 51.8899 10.9699L51.2599 11.2399C46.6699 6.37994 40.6399 3.76994 33.8899 3.76994C26.5999 3.76994 20.2099 6.82994 15.7999 12.3199C11.7499 17.2699 9.76987 23.7499 9.76987 32.2099C9.76987 40.8499 11.8399 47.5099 16.1599 52.4599C20.4799 57.4999 26.5999 60.1999 33.7099 60.1999C40.9099 60.1999 47.1199 57.7699 53.1499 52.5499Z" fill="#252525"/>
</svg>
