<svg width="230" height="89" viewBox="0 0 230 89" fill="none" xmlns="http://www.w3.org/2000/svg">
<path d="M65.6321 31.096L65.2721 31.072C62.4881 31 62.4881 31 61.9601 31C60.5681 31 57.6641 31.048 57.0161 31.096C57.1841 29.464 57.2801 25.696 57.2801 21.712C57.2801 18.64 57.2081 16.216 57.1121 14.896C57.8801 14.968 57.9041 14.968 61.4081 14.992L63.3521 14.968C64.6721 14.968 65.0561 14.944 65.5121 14.896C65.4641 15.232 65.4401 15.4 65.4401 15.592C65.4401 15.76 65.4641 15.928 65.5121 16.288C64.1921 16.144 61.8641 16.048 60.1601 16.048C59.8961 16.048 59.6801 16.048 59.3681 16.072C59.3441 16.24 59.3201 17.176 59.2481 18.88C59.1761 21.184 59.1761 21.184 59.1761 21.52C59.1761 21.568 59.1761 21.784 59.2001 22C59.5361 22.024 59.6801 22.024 60.0641 22.024C61.8641 22.024 64.0481 21.928 64.9601 21.808C64.8881 22.168 64.8641 22.36 64.8641 22.576C64.8641 22.816 64.8881 22.96 64.9601 23.224C63.9521 23.128 62.1281 23.056 60.0161 23.056C59.7041 23.056 59.5121 23.056 59.1761 23.08V23.488L59.2001 24.688V26.464C59.2001 26.944 59.2001 27.544 59.2241 28.216C59.2481 28.96 59.2721 29.44 59.2721 29.56V29.944C59.6081 29.968 59.8241 29.968 60.1121 29.968C62.0801 29.968 64.5761 29.824 65.6321 29.656C65.5841 29.968 65.5601 30.136 65.5601 30.376C65.5601 30.64 65.5841 30.784 65.6321 31.096Z" fill="#252525"/>
<path d="M72.5514 14.68H72.9354C75.2634 19.288 78.2394 24.904 79.6794 27.376C80.1594 26.56 80.4234 26.08 81.4074 24.28C82.8474 21.64 84.6234 18.4 86.7354 14.68H87.0474L87.0954 15.088C87.1914 15.88 87.2634 16.648 87.3354 17.44L87.6714 20.416C88.1754 25.336 88.7274 29.752 88.9674 31.096C88.3194 31.024 88.0794 31 87.8154 31C87.5514 31 87.3114 31.024 86.6874 31.096C86.6634 29.08 86.2554 24.52 85.6074 19.432L85.5594 18.952C83.4234 22.552 80.3274 28.456 79.3194 30.856H79.1274C76.4154 25.336 76.3674 25.24 73.2474 19.552L73.0314 19.168C72.4314 23.584 71.8314 29.584 71.8554 31.096C71.3274 31.024 71.1834 31 70.9914 31C70.7754 31 70.6074 31.024 70.1754 31.096C70.6314 28.744 71.1594 25.264 71.8074 20.32C72.1194 17.872 72.3354 16.408 72.4074 15.904C72.4554 15.544 72.5034 15.112 72.5514 14.68Z" fill="#252525"/>
<path d="M94.4711 14.896C94.9511 14.968 95.2151 14.992 95.6471 14.992C96.0791 14.992 96.3431 14.968 96.8231 14.896C96.6791 16.576 96.5831 19.432 96.5831 22.216C96.5831 26.296 96.6551 29.272 96.8231 31.096C96.2471 31.024 95.9591 31 95.6231 31C95.2631 31 94.9991 31.024 94.4711 31.096C94.6151 29.2 94.6871 26.272 94.6871 21.76C94.6871 19.096 94.5911 16.384 94.4711 14.896Z" fill="#252525"/>
<path d="M103.318 14.584H103.702C104.134 15.04 104.398 15.352 105.886 16.984C106.846 18.016 107.638 18.88 108.166 19.432C108.958 20.248 109.75 21.088 110.518 21.904C111.31 22.696 112.222 23.68 112.966 24.544C114.262 25.936 114.838 26.512 115.534 27.184L115.558 26.584C115.606 23.344 115.606 23.344 115.606 21.976C115.606 18.616 115.558 16.312 115.438 14.896C115.894 14.968 116.086 14.992 116.278 14.992C116.518 14.992 116.71 14.968 117.094 14.896C116.83 17.08 116.662 21.76 116.662 26.656C116.662 28.984 116.662 30.064 116.71 31.408H116.35C114.742 29.44 110.734 25 106.678 20.776C106.006 20.08 105.358 19.408 104.71 18.712L104.422 18.424L104.398 18.856C104.35 23.776 104.35 23.872 104.35 24.496C104.35 26.776 104.446 29.56 104.566 31.096C104.23 31.024 104.014 31 103.702 31C103.39 31 103.222 31.024 102.886 31.096C103.054 29.92 103.198 26.824 103.27 22.768C103.342 19.624 103.342 19.624 103.342 16.984C103.342 15.688 103.342 15.256 103.318 14.584Z" fill="#252525"/>
<path d="M123.16 14.896C123.64 14.968 123.904 14.992 124.336 14.992C124.768 14.992 125.032 14.968 125.512 14.896C125.368 16.576 125.272 19.432 125.272 22.216C125.272 26.296 125.344 29.272 125.512 31.096C124.937 31.024 124.648 31 124.312 31C123.952 31 123.688 31.024 123.16 31.096C123.304 29.2 123.376 26.272 123.376 21.76C123.376 19.096 123.28 16.384 123.16 14.896Z" fill="#252525"/>
<path d="M132.007 14.584H132.391C132.823 15.04 133.087 15.352 134.575 16.984C135.535 18.016 136.327 18.88 136.855 19.432C137.647 20.248 138.439 21.088 139.207 21.904C139.999 22.696 140.911 23.68 141.655 24.544C142.951 25.936 143.527 26.512 144.223 27.184L144.247 26.584C144.295 23.344 144.295 23.344 144.295 21.976C144.295 18.616 144.247 16.312 144.127 14.896C144.583 14.968 144.775 14.992 144.967 14.992C145.207 14.992 145.399 14.968 145.783 14.896C145.519 17.08 145.351 21.76 145.351 26.656C145.351 28.984 145.351 30.064 145.399 31.408H145.039C143.431 29.44 139.423 25 135.367 20.776C134.695 20.08 134.047 19.408 133.399 18.712L133.111 18.424L133.087 18.856C133.039 23.776 133.039 23.872 133.039 24.496C133.039 26.776 133.135 29.56 133.255 31.096C132.919 31.024 132.703 31 132.391 31C132.079 31 131.911 31.024 131.575 31.096C131.743 29.92 131.887 26.824 131.959 22.768C132.031 19.624 132.031 19.624 132.031 16.984C132.031 15.688 132.031 15.256 132.007 14.584Z" fill="#252525"/>
<path d="M160.466 31.096L160.106 31.072C157.322 31 157.322 31 156.794 31C155.402 31 152.498 31.048 151.85 31.096C152.018 29.464 152.114 25.696 152.114 21.712C152.114 18.64 152.042 16.216 151.946 14.896C152.714 14.968 152.738 14.968 156.242 14.992L158.186 14.968C159.506 14.968 159.89 14.944 160.346 14.896C160.298 15.232 160.274 15.4 160.274 15.592C160.274 15.76 160.298 15.928 160.346 16.288C159.026 16.144 156.698 16.048 154.994 16.048C154.73 16.048 154.514 16.048 154.202 16.072C154.178 16.24 154.154 17.176 154.082 18.88C154.01 21.184 154.01 21.184 154.01 21.52C154.01 21.568 154.01 21.784 154.034 22C154.37 22.024 154.514 22.024 154.898 22.024C156.698 22.024 158.882 21.928 159.794 21.808C159.722 22.168 159.698 22.36 159.698 22.576C159.698 22.816 159.722 22.96 159.794 23.224C158.786 23.128 156.962 23.056 154.85 23.056C154.538 23.056 154.346 23.056 154.01 23.08V23.488L154.034 24.688V26.464C154.034 26.944 154.034 27.544 154.058 28.216C154.082 28.96 154.106 29.44 154.106 29.56V29.944C154.442 29.968 154.658 29.968 154.946 29.968C156.914 29.968 159.41 29.824 160.466 29.656C160.418 29.968 160.394 30.136 160.394 30.376C160.394 30.64 160.418 30.784 160.466 31.096Z" fill="#252525"/>
<path d="M69.2399 59.48L69.3599 59.552L69.3119 59.768L69.1919 60.272L69.0719 60.776L69.0239 60.968C67.6319 61.928 65.8079 62.408 63.6479 62.408C58.5839 62.408 55.2959 59.144 55.2959 54.128C55.2959 48.872 58.7759 45.584 64.3199 45.584C66.2879 45.584 68.0399 45.92 69.3839 46.568C69.1679 47.096 68.9999 47.744 68.9039 48.392L68.7359 48.464C67.5119 47.168 65.9039 46.472 64.1039 46.472C62.1599 46.472 60.4559 47.288 59.2799 48.752C58.1999 50.072 57.6719 51.8 57.6719 54.056C57.6719 56.36 58.2239 58.136 59.3759 59.456C60.5279 60.8 62.1599 61.52 64.0559 61.52C65.9759 61.52 67.6319 60.872 69.2399 59.48Z" fill="#252525"/>
<path d="M74.4153 45.896C74.8953 45.968 75.1833 45.992 75.7113 45.992C76.1673 45.992 76.3833 45.968 76.7673 45.896C76.5753 48.416 76.5273 50.168 76.5273 54.92C76.5273 56.48 76.5993 59.456 76.6953 60.992C77.1753 61.016 77.4153 61.016 77.7513 61.016C79.5273 61.016 81.7593 60.848 83.1273 60.632C83.0553 60.944 83.0313 61.136 83.0313 61.424C83.0313 61.688 83.0553 61.832 83.1273 62.096C82.3833 62.048 79.6233 62 78.5433 62C77.8233 62 75.2553 62.048 74.4153 62.096C74.5353 60.68 74.6313 57.536 74.6313 54.032C74.6313 49.64 74.6073 48.56 74.4153 45.896Z" fill="#252525"/>
<path d="M94.8873 45.68L95.0553 46.112L96.6873 49.952L98.3673 53.912L100.143 58.016C101.151 60.392 101.391 60.92 101.943 62.096C101.439 62.024 101.175 62 100.695 62C100.239 62 99.9753 62.024 99.5433 62.096C99.1113 60.848 97.7913 57.464 97.0473 55.76H96.6153L93.8793 55.736C93.8553 55.736 91.5513 55.76 90.9993 55.784C90.4233 57.176 89.9673 58.28 89.7753 58.832C89.7513 58.856 89.2713 60.296 88.6473 62.096C88.2393 62.024 88.0473 62 87.8313 62C87.5913 62 87.4233 62.024 86.9433 62.096C87.4473 61.112 87.8073 60.344 88.8153 58.136C89.4153 56.768 90.0393 55.4 90.6633 53.984C91.2873 52.664 91.8633 51.392 92.4633 50C93.0153 48.776 93.5913 47.48 94.1673 46.184L94.4073 45.68H94.6473H94.8873ZM94.0713 48.776L93.9273 49.088L92.7273 51.752L91.5753 54.44L91.4313 54.776C92.5353 54.8 92.9913 54.8 94.1913 54.8C95.2473 54.8 95.8233 54.8 96.6393 54.776L96.5193 54.44C96.1353 53.552 95.7513 52.64 95.3913 51.752C94.9593 50.744 94.5993 49.928 94.0713 48.776Z" fill="#252525"/>
<path d="M114.346 48.68H114.106C113.65 47.36 112.474 46.52 111.106 46.52C109.426 46.52 108.154 47.768 108.154 49.4C108.154 50.24 108.538 51.056 109.21 51.56C109.786 51.968 110.506 52.352 111.922 52.928C113.53 53.6 113.986 53.864 114.562 54.44C115.282 55.136 115.642 56.048 115.642 57.152C115.642 60.128 113.17 62.408 109.954 62.408C108.418 62.408 107.026 61.952 105.922 61.064C106.258 60.032 106.33 59.648 106.402 58.928H106.642C107.29 60.368 108.826 61.352 110.386 61.352C112.33 61.352 113.77 59.936 113.77 57.968C113.77 57.128 113.482 56.456 112.93 55.928C112.354 55.4 111.994 55.208 110.314 54.512C107.41 53.312 106.33 52.112 106.33 50.048C106.33 47.384 108.394 45.584 111.394 45.584C112.786 45.584 113.842 45.92 114.994 46.712C114.706 47.336 114.466 48.104 114.346 48.68Z" fill="#252525"/>
<path d="M128.269 48.68H128.029C127.573 47.36 126.397 46.52 125.029 46.52C123.349 46.52 122.077 47.768 122.077 49.4C122.077 50.24 122.461 51.056 123.133 51.56C123.709 51.968 124.429 52.352 125.845 52.928C127.453 53.6 127.909 53.864 128.485 54.44C129.205 55.136 129.565 56.048 129.565 57.152C129.565 60.128 127.093 62.408 123.877 62.408C122.341 62.408 120.949 61.952 119.845 61.064C120.181 60.032 120.253 59.648 120.325 58.928H120.565C121.213 60.368 122.749 61.352 124.309 61.352C126.253 61.352 127.693 59.936 127.693 57.968C127.693 57.128 127.405 56.456 126.853 55.928C126.277 55.4 125.917 55.208 124.237 54.512C121.333 53.312 120.253 52.112 120.253 50.048C120.253 47.384 122.317 45.584 125.317 45.584C126.709 45.584 127.765 45.92 128.917 46.712C128.629 47.336 128.389 48.104 128.269 48.68Z" fill="#252525"/>
<path d="M134.817 45.896C135.297 45.968 135.561 45.992 135.993 45.992C136.425 45.992 136.689 45.968 137.169 45.896C137.025 47.576 136.929 50.432 136.929 53.216C136.929 57.296 137.001 60.272 137.169 62.096C136.593 62.024 136.305 62 135.969 62C135.609 62 135.345 62.024 134.817 62.096C134.961 60.2 135.033 57.272 135.033 52.76C135.033 50.096 134.937 47.384 134.817 45.896Z" fill="#252525"/>
<path d="M156.456 59.48L156.576 59.552L156.528 59.768L156.408 60.272L156.288 60.776L156.24 60.968C154.848 61.928 153.024 62.408 150.864 62.408C145.8 62.408 142.512 59.144 142.512 54.128C142.512 48.872 145.992 45.584 151.536 45.584C153.504 45.584 155.256 45.92 156.6 46.568C156.384 47.096 156.216 47.744 156.12 48.392L155.952 48.464C154.728 47.168 153.12 46.472 151.32 46.472C149.376 46.472 147.672 47.288 146.496 48.752C145.416 50.072 144.888 51.8 144.888 54.056C144.888 56.36 145.44 58.136 146.592 59.456C147.744 60.8 149.376 61.52 151.272 61.52C153.192 61.52 154.848 60.872 156.456 59.48Z" fill="#252525"/>
<path d="M169.264 48.68H169.024C168.568 47.36 167.392 46.52 166.024 46.52C164.344 46.52 163.072 47.768 163.072 49.4C163.072 50.24 163.456 51.056 164.128 51.56C164.704 51.968 165.424 52.352 166.84 52.928C168.448 53.6 168.904 53.864 169.48 54.44C170.2 55.136 170.56 56.048 170.56 57.152C170.56 60.128 168.088 62.408 164.872 62.408C163.336 62.408 161.944 61.952 160.84 61.064C161.176 60.032 161.248 59.648 161.32 58.928H161.56C162.208 60.368 163.744 61.352 165.304 61.352C167.248 61.352 168.688 59.936 168.688 57.968C168.688 57.128 168.4 56.456 167.848 55.928C167.272 55.4 166.912 55.208 165.232 54.512C162.328 53.312 161.248 52.112 161.248 50.048C161.248 47.384 163.312 45.584 166.312 45.584C167.704 45.584 168.76 45.92 169.912 46.712C169.624 47.336 169.384 48.104 169.264 48.68Z" fill="#252525"/>
<path d="M179.261 47.12H178.877C175.373 47.264 175.181 47.264 174.125 47.432C174.197 47.144 174.221 46.976 174.221 46.712C174.221 46.448 174.197 46.256 174.125 45.896C176.261 46.016 176.933 46.04 179.981 46.04C183.341 46.04 184.013 46.016 186.413 45.896C186.293 46.232 186.269 46.4 186.269 46.664C186.269 46.928 186.293 47.096 186.365 47.432C185.573 47.264 183.749 47.144 181.421 47.12C181.325 48.608 181.277 51.008 181.277 53.48C181.277 57.608 181.349 60.8 181.493 62.096C180.917 62.024 180.629 62 180.269 62C179.885 62 179.645 62.024 179.141 62.096C179.285 60.944 179.381 57.032 179.381 52.808C179.381 51.152 179.333 49.352 179.261 47.12Z" fill="#252525"/>
<path d="M194.057 52.904L192.761 50.768C191.057 47.912 190.073 46.304 189.809 45.896C190.481 45.968 190.817 45.992 191.249 45.992C191.657 45.992 191.921 45.968 192.401 45.896C193.217 47.624 196.145 52.832 196.913 53.96C197.945 52.352 200.825 47.168 201.377 45.896C201.689 45.968 201.857 45.992 202.169 45.992C202.481 45.992 202.745 45.968 203.225 45.896C201.161 48.848 198.185 53.648 197.537 55.136C197.513 55.496 197.513 55.856 197.513 55.952V57.272L197.561 59.648C197.561 60.944 197.609 61.496 197.705 62.096C196.817 62 196.697 62 196.481 62C196.193 62 195.977 62.024 195.353 62.096C195.497 61.088 195.569 59.456 195.569 56.192V55.424L195.281 54.968L194.057 52.904Z" fill="#252525"/>
<path d="M207.478 45.896C207.958 45.968 208.246 45.992 208.774 45.992C209.23 45.992 209.446 45.968 209.83 45.896C209.638 48.416 209.59 50.168 209.59 54.92C209.59 56.48 209.662 59.456 209.758 60.992C210.238 61.016 210.478 61.016 210.814 61.016C212.59 61.016 214.822 60.848 216.19 60.632C216.118 60.944 216.094 61.136 216.094 61.424C216.094 61.688 216.118 61.832 216.19 62.096C215.446 62.048 212.686 62 211.606 62C210.886 62 208.318 62.048 207.478 62.096C207.598 60.68 207.694 57.536 207.694 54.032C207.694 49.64 207.67 48.56 207.478 45.896Z" fill="#252525"/>
<path d="M229.361 62.096L229.001 62.072C226.217 62 226.217 62 225.689 62C224.297 62 221.393 62.048 220.745 62.096C220.913 60.464 221.009 56.696 221.009 52.712C221.009 49.64 220.937 47.216 220.841 45.896C221.609 45.968 221.633 45.968 225.137 45.992L227.081 45.968C228.401 45.968 228.785 45.944 229.241 45.896C229.193 46.232 229.169 46.4 229.169 46.592C229.169 46.76 229.193 46.928 229.241 47.288C227.921 47.144 225.593 47.048 223.889 47.048C223.625 47.048 223.409 47.048 223.097 47.072C223.073 47.24 223.049 48.176 222.977 49.88C222.905 52.184 222.905 52.184 222.905 52.52C222.905 52.568 222.905 52.784 222.929 53C223.265 53.024 223.409 53.024 223.793 53.024C225.593 53.024 227.777 52.928 228.689 52.808C228.617 53.168 228.593 53.36 228.593 53.576C228.593 53.816 228.617 53.96 228.689 54.224C227.681 54.128 225.857 54.056 223.745 54.056C223.433 54.056 223.241 54.056 222.905 54.08V54.488L222.929 55.688V57.464C222.929 57.944 222.929 58.544 222.953 59.216C222.977 59.96 223.001 60.44 223.001 60.56V60.944C223.337 60.968 223.553 60.968 223.841 60.968C225.809 60.968 228.305 60.824 229.361 60.656C229.313 60.968 229.289 61.136 229.289 61.376C229.289 61.64 229.313 61.784 229.361 62.096Z" fill="#252525"/>
<path d="M0.5 88H47" stroke="#252525"/>
<path d="M15.6601 31.21V32.83C15.7501 49.3 15.9301 57.22 16.3801 61.36C14.4001 61.09 13.3201 61 12.0601 61C10.8001 61 9.72006 61.09 7.56006 61.36C8.10006 55.42 8.55006 37.69 8.55006 22.12C8.55006 16 8.19006 4.65998 7.92006 0.609985C10.5301 0.879982 10.5301 0.879982 13.9501 0.879982H16.4701L24.0301 0.969981C30.2401 0.879982 33.8401 0.879982 35.1001 0.879982C36.9901 0.879982 37.3501 0.789983 39.4201 0.609985C39.2401 1.86999 39.1501 2.49998 39.1501 3.21998C39.1501 3.84998 39.2401 4.47998 39.4201 5.82998C34.3801 5.37998 25.5601 4.92998 19.5301 4.92998C18.6301 4.92998 17.8201 4.92998 16.3801 5.01998C16.2901 5.82998 16.2001 9.33998 15.9301 15.55C15.6601 24.19 15.6601 24.19 15.6601 25.36C15.6601 25.54 15.6601 26.44 15.7501 27.25C17.1901 27.34 17.7301 27.34 18.9901 27.34C25.5601 27.34 33.7501 26.98 37.3501 26.53C37.0801 27.88 36.9901 28.6 36.9901 29.41C36.9901 30.31 37.0801 30.85 37.3501 31.84C32.7601 31.39 26.6401 31.12 19.4401 31.12C18.3601 31.12 17.3701 31.12 15.6601 31.21Z" fill="#252525"/>
</svg>
