<svg width="1456" height="212" viewBox="0 0 1456 212" fill="none" xmlns="http://www.w3.org/2000/svg">
<path d="M25.2002 106.7V112.1C25.5002 167 26.1002 193.4 27.6002 207.2C21.0002 206.3 17.4002 206 13.2002 206C9.00019 206 5.40019 206.3 -1.7998 207.2C0.00019455 187.4 1.50019 128.3 1.50019 76.4C1.50019 56.0001 0.300194 18.2 -0.599806 4.70005C8.10019 5.60004 8.10019 5.60004 19.5002 5.60004H27.9002L53.1002 5.90004C73.8002 5.60004 85.8002 5.60004 90.0002 5.60004C96.3002 5.60004 97.5002 5.30004 104.4 4.70005C103.8 8.90005 103.5 11 103.5 13.4C103.5 15.5 103.8 17.6 104.4 22.1C87.6002 20.6 58.2002 19.1 38.1002 19.1C35.1002 19.1 32.4002 19.1 27.6002 19.4C27.3002 22.1 27.0002 33.8001 26.1002 54.5001C25.2002 83.3 25.2002 83.3 25.2002 87.2C25.2002 87.8 25.2002 90.8001 25.5002 93.5C30.3002 93.8 32.1002 93.8 36.3002 93.8C58.2002 93.8 85.5002 92.6001 97.5002 91.1001C96.6002 95.6 96.3002 98 96.3002 100.7C96.3002 103.7 96.6002 105.5 97.5002 108.8C82.2002 107.3 61.8002 106.4 37.8002 106.4C34.2002 106.4 30.9002 106.4 25.2002 106.7Z" fill="#EDE5D3"/>
<path d="M270.56 207.2L266.06 206.9C231.26 206 231.26 206 224.66 206C207.26 206 170.96 206.6 162.86 207.2C164.96 186.8 166.16 139.7 166.16 89.9C166.16 51.5 165.26 21.2 164.06 4.70005C173.66 5.60004 173.96 5.60004 217.76 5.90004L242.06 5.60004C258.56 5.60004 263.36 5.30004 269.06 4.70005C268.46 8.90005 268.16 11 268.16 13.4C268.16 15.5 268.46 17.6 269.06 22.1C252.56 20.3 223.46 19.1 202.16 19.1C198.86 19.1 196.16 19.1 192.26 19.4C191.96 21.5 191.66 33.2 190.76 54.5001C189.86 83.3 189.86 83.3001 189.86 87.5001C189.86 88.1001 189.86 90.8001 190.16 93.5C194.36 93.8 196.16 93.8 200.96 93.8C223.46 93.8 250.76 92.6001 262.16 91.1001C261.26 95.6 260.96 98 260.96 100.7C260.96 103.7 261.26 105.5 262.16 108.8C249.56 107.6 226.76 106.7 200.36 106.7C196.46 106.7 194.06 106.7 189.86 107V112.1L190.16 127.1V149.3C190.16 155.3 190.16 162.8 190.46 171.2C190.76 180.5 191.06 186.5 191.06 188V192.8C195.26 193.1 197.96 193.1 201.56 193.1C226.16 193.1 257.36 191.3 270.56 189.2C269.96 193.1 269.66 195.2 269.66 198.2C269.66 201.5 269.96 203.3 270.56 207.2Z" fill="#EDE5D3"/>
<path d="M357.052 2.00005H361.852C390.952 59.6 428.152 129.8 446.152 160.7C452.152 150.5 455.452 144.5 467.752 122C485.752 89 507.952 48.5 534.352 2.00005H538.252L538.852 7.10004C540.052 17 540.952 26.6 541.852 36.5001L546.052 73.7001C552.352 135.2 559.252 190.4 562.252 207.2C554.152 206.3 551.152 206 547.852 206C544.552 206 541.552 206.3 533.752 207.2C533.452 182 528.352 125 520.252 61.4L519.652 55.4C492.952 100.4 454.252 174.2 441.652 204.2H439.252C405.352 135.2 404.752 134 365.752 62.9L363.052 58.1C355.552 113.3 348.052 188.3 348.352 207.2C341.752 206.3 339.952 206 337.552 206C334.852 206 332.752 206.3 327.352 207.2C333.052 177.8 339.652 134.3 347.752 72.5C351.652 41.9 354.352 23.6 355.252 17.3001C355.852 12.8 356.452 7.40004 357.052 2.00005Z" fill="#EDE5D3"/>
<path d="M631.048 4.70005C637.048 5.60004 640.348 5.90004 645.748 5.90004C651.148 5.90004 654.448 5.60004 660.448 4.70005C658.648 25.7001 657.448 61.4 657.448 96.2C657.448 147.2 658.348 184.4 660.448 207.2C653.248 206.3 649.648 206 645.448 206C640.948 206 637.648 206.3 631.048 207.2C632.848 183.5 633.748 146.9 633.748 90.5C633.748 57.2 632.548 23.3 631.048 4.70005Z" fill="#EDE5D3"/>
<path d="M741.635 0.800049H746.435C751.835 6.50005 755.135 10.4 773.735 30.8C785.735 43.7001 795.635 54.5001 802.235 61.4C812.135 71.6001 822.035 82.1 831.635 92.3C841.535 102.2 852.935 114.5 862.235 125.3C878.435 142.7 885.635 149.9 894.335 158.3L894.635 150.8C895.235 110.3 895.235 110.3 895.235 93.2001C895.235 51.2 894.635 22.4 893.135 4.70005C898.835 5.60004 901.235 5.90004 903.635 5.90004C906.635 5.90004 909.035 5.60004 913.835 4.70005C910.535 32 908.435 90.5 908.435 151.7C908.435 180.8 908.435 194.3 909.035 211.1H904.535C884.435 186.5 834.335 131 783.635 78.2C775.235 69.5 767.135 61.1001 759.035 52.4L755.435 48.8L755.135 54.2C754.535 115.7 754.535 116.9 754.535 124.7C754.535 153.2 755.735 188 757.235 207.2C753.035 206.3 750.335 206 746.435 206C742.535 206 740.435 206.3 736.235 207.2C738.335 192.5 740.135 153.8 741.035 103.1C741.935 63.8 741.935 63.8 741.935 30.8C741.935 14.6 741.935 9.20005 741.635 0.800049Z" fill="#EDE5D3"/>
<path d="M989.665 4.70005C995.665 5.60004 998.965 5.90004 1004.37 5.90004C1009.77 5.90004 1013.07 5.60004 1019.07 4.70005C1017.27 25.7001 1016.07 61.4 1016.07 96.2C1016.07 147.2 1016.97 184.4 1019.07 207.2C1011.86 206.3 1008.27 206 1004.07 206C999.565 206 996.265 206.3 989.665 207.2C991.465 183.5 992.365 146.9 992.365 90.5C992.365 57.2 991.165 23.3 989.665 4.70005Z" fill="#EDE5D3"/>
<path d="M1100.25 0.800049H1105.05C1110.45 6.50005 1113.75 10.4 1132.35 30.8C1144.35 43.7001 1154.25 54.5001 1160.85 61.4C1170.75 71.6001 1180.65 82.1 1190.25 92.3C1200.15 102.2 1211.55 114.5 1220.85 125.3C1237.05 142.7 1244.25 149.9 1252.95 158.3L1253.25 150.8C1253.85 110.3 1253.85 110.3 1253.85 93.2001C1253.85 51.2 1253.25 22.4 1251.75 4.70005C1257.45 5.60004 1259.85 5.90004 1262.25 5.90004C1265.25 5.90004 1267.65 5.60004 1272.45 4.70005C1269.15 32 1267.05 90.5 1267.05 151.7C1267.05 180.8 1267.05 194.3 1267.65 211.1H1263.15C1243.05 186.5 1192.95 131 1142.25 78.2C1133.85 69.5 1125.75 61.1001 1117.65 52.4L1114.05 48.8L1113.75 54.2C1113.15 115.7 1113.15 116.9 1113.15 124.7C1113.15 153.2 1114.35 188 1115.85 207.2C1111.65 206.3 1108.95 206 1105.05 206C1101.15 206 1099.05 206.3 1094.85 207.2C1096.95 192.5 1098.75 153.8 1099.65 103.1C1100.55 63.8 1100.55 63.8 1100.55 30.8C1100.55 14.6 1100.55 9.20005 1100.25 0.800049Z" fill="#EDE5D3"/>
<path d="M1455.98 207.2L1451.48 206.9C1416.68 206 1416.68 206 1410.08 206C1392.68 206 1356.38 206.6 1348.28 207.2C1350.38 186.8 1351.58 139.7 1351.58 89.9C1351.58 51.5 1350.68 21.2 1349.48 4.70005C1359.08 5.60004 1359.38 5.60004 1403.18 5.90004L1427.48 5.60004C1443.98 5.60004 1448.78 5.30004 1454.48 4.70005C1453.88 8.90005 1453.58 11 1453.58 13.4C1453.58 15.5 1453.88 17.6 1454.48 22.1C1437.98 20.3 1408.88 19.1 1387.58 19.1C1384.28 19.1 1381.58 19.1 1377.68 19.4C1377.38 21.5 1377.08 33.2 1376.18 54.5001C1375.28 83.3 1375.28 83.3001 1375.28 87.5001C1375.28 88.1001 1375.28 90.8001 1375.58 93.5C1379.78 93.8 1381.58 93.8 1386.38 93.8C1408.88 93.8 1436.18 92.6001 1447.58 91.1001C1446.68 95.6 1446.38 98 1446.38 100.7C1446.38 103.7 1446.68 105.5 1447.58 108.8C1434.98 107.6 1412.18 106.7 1385.78 106.7C1381.88 106.7 1379.48 106.7 1375.28 107V112.1L1375.58 127.1V149.3C1375.58 155.3 1375.58 162.8 1375.88 171.2C1376.18 180.5 1376.48 186.5 1376.48 188V192.8C1380.68 193.1 1383.38 193.1 1386.98 193.1C1411.58 193.1 1442.78 191.3 1455.98 189.2C1455.38 193.1 1455.08 195.2 1455.08 198.2C1455.08 201.5 1455.38 203.3 1455.98 207.2Z" fill="#EDE5D3"/>
</svg>
