<svg width="419" height="42" viewBox="0 0 419 42" fill="none" xmlns="http://www.w3.org/2000/svg">
<path d="M18.1502 35.1998L17.4002 35.1498C11.6002 34.9998 11.6002 34.9998 10.5002 34.9998C7.6002 34.9998 1.5502 35.0998 0.200195 35.1998C0.550195 31.7998 0.750196 23.9498 0.750196 15.6498C0.750196 9.2498 0.600196 4.1998 0.400196 1.44981C2.0002 1.5998 2.0502 1.5998 9.3502 1.6498L13.4002 1.5998C16.1502 1.5998 16.9502 1.5498 17.9002 1.44981C17.8002 2.14981 17.7502 2.4998 17.7502 2.8998C17.7502 3.2498 17.8002 3.5998 17.9002 4.3498C15.1502 4.0498 10.3002 3.8498 6.7502 3.8498C6.2002 3.8498 5.7502 3.8498 5.1002 3.8998C5.0502 4.2498 5.0002 6.1998 4.8502 9.74981C4.7002 14.5498 4.7002 14.5498 4.7002 15.2498C4.7002 15.3498 4.7002 15.7998 4.7502 16.2498C5.4502 16.2998 5.7502 16.2998 6.5502 16.2998C10.3002 16.2998 14.8502 16.0998 16.7502 15.8498C16.6002 16.5998 16.5502 16.9998 16.5502 17.4498C16.5502 17.9498 16.6002 18.2498 16.7502 18.7998C14.6502 18.5998 10.8502 18.4498 6.4502 18.4498C5.8002 18.4498 5.4002 18.4498 4.7002 18.4998V19.3498L4.7502 21.8498V25.5498C4.7502 26.5498 4.7502 27.7998 4.8002 29.1998C4.8502 30.7498 4.9002 31.7498 4.9002 31.9998V32.7998C5.6002 32.8498 6.0502 32.8498 6.6502 32.8498C10.7502 32.8498 15.9502 32.5498 18.1502 32.1998C18.0502 32.8498 18.0002 33.1998 18.0002 33.6998C18.0002 34.2498 18.0502 34.5498 18.1502 35.1998Z" fill="#252525"/>
<path d="M55.926 29.7498L56.176 29.8998L56.076 30.3498L55.826 31.3998L55.576 32.4498L55.476 32.8498C52.576 34.8498 48.776 35.8498 44.276 35.8498C33.726 35.8498 26.876 29.0498 26.876 18.5998C26.876 7.6498 34.126 0.799805 45.676 0.799805C49.776 0.799805 53.426 1.4998 56.226 2.8498C55.776 3.9498 55.426 5.2998 55.226 6.6498L54.876 6.7998C52.326 4.0998 48.976 2.64981 45.226 2.64981C41.176 2.64981 37.626 4.3498 35.176 7.3998C32.926 10.1498 31.826 13.7498 31.826 18.4498C31.826 23.2498 32.976 26.9498 35.376 29.6998C37.776 32.4998 41.176 33.9998 45.126 33.9998C49.126 33.9998 52.576 32.6498 55.926 29.7498Z" fill="#252525"/>
<path d="M66.708 1.44981C67.708 1.5998 68.308 1.6498 69.408 1.6498C70.358 1.6498 70.808 1.5998 71.608 1.44981C71.208 6.6998 71.108 10.3498 71.108 20.2498C71.108 23.4998 71.258 29.6998 71.458 32.8998C72.458 32.9498 72.958 32.9498 73.658 32.9498C77.358 32.9498 82.008 32.5998 84.858 32.1498C84.708 32.7998 84.658 33.1998 84.658 33.7998C84.658 34.3498 84.708 34.6498 84.858 35.1998C83.308 35.0998 77.558 34.9998 75.308 34.9998C73.808 34.9998 68.458 35.0998 66.708 35.1998C66.958 32.2498 67.158 25.6998 67.158 18.3998C67.158 9.2498 67.108 6.99981 66.708 1.44981Z" fill="#252525"/>
<path d="M109.358 0.999805L109.708 1.8998L113.108 9.8998L116.608 18.1498L120.308 26.6998C122.408 31.6498 122.908 32.7498 124.058 35.1998C123.008 35.0498 122.458 34.9998 121.458 34.9998C120.508 34.9998 119.958 35.0498 119.058 35.1998C118.158 32.5998 115.408 25.5498 113.858 21.9998H112.958L107.258 21.9498C107.208 21.9498 102.408 21.9998 101.258 22.0498C100.058 24.9498 99.108 27.2498 98.708 28.3998C98.658 28.4498 97.658 31.4498 96.358 35.1998C95.508 35.0498 95.108 34.9998 94.658 34.9998C94.158 34.9998 93.808 35.0498 92.808 35.1998C93.858 33.1498 94.608 31.5498 96.708 26.9498C97.958 24.0998 99.258 21.2498 100.558 18.2998C101.858 15.5498 103.058 12.8998 104.308 9.99981C105.458 7.44981 106.658 4.7498 107.858 2.0498L108.358 0.999805H108.858H109.358ZM107.658 7.44981L107.358 8.0998L104.858 13.6498L102.458 19.2498L102.158 19.9498C104.458 19.9998 105.408 19.9998 107.908 19.9998C110.108 19.9998 111.308 19.9998 113.008 19.9498L112.758 19.2498C111.958 17.3998 111.158 15.4998 110.408 13.6498C109.508 11.5498 108.758 9.8498 107.658 7.44981Z" fill="#252525"/>
<path d="M136.981 3.99981H136.181C128.881 4.2998 128.481 4.2998 126.281 4.6498C126.431 4.0498 126.481 3.6998 126.481 3.1498C126.481 2.59981 126.431 2.1998 126.281 1.44981C130.731 1.69981 132.131 1.7498 138.481 1.7498C145.481 1.7498 146.881 1.69981 151.881 1.44981C151.631 2.14981 151.581 2.4998 151.581 3.0498C151.581 3.5998 151.631 3.9498 151.781 4.6498C150.131 4.2998 146.331 4.0498 141.481 3.99981C141.281 7.0998 141.181 12.0998 141.181 17.2498C141.181 25.8498 141.331 32.4998 141.631 35.1998C140.431 35.0498 139.831 34.9998 139.081 34.9998C138.281 34.9998 137.781 35.0498 136.731 35.1998C137.031 32.7998 137.231 24.6498 137.231 15.8498C137.231 12.3998 137.131 8.64981 136.981 3.99981Z" fill="#252525"/>
<path d="M173.317 41.8998L172.917 40.5998C173.617 40.6998 173.967 40.7498 174.517 40.7498C178.517 40.7498 180.567 38.6998 180.917 34.2498C181.117 31.8498 181.217 26.2998 181.217 16.4498C181.217 10.4998 181.017 4.44981 180.667 1.44981C182.067 1.5998 182.617 1.6498 183.217 1.6498C183.867 1.6498 184.417 1.5998 185.617 1.44981C185.267 7.3998 185.167 10.5998 185.167 16.0498C185.167 18.6498 185.217 21.3498 185.267 23.7498C185.367 26.6498 185.417 29.2498 185.417 30.5998C185.417 35.3998 183.967 38.4998 180.817 40.4998C179.267 41.4498 177.117 41.9998 174.667 41.9998C174.167 41.9998 173.867 41.9998 173.317 41.8998Z" fill="#252525"/>
<path d="M215.162 0.799805C226.812 0.799805 233.762 7.44981 233.762 18.5998C233.762 29.1498 226.562 35.8498 215.212 35.8498C203.762 35.8498 196.712 29.1498 196.712 18.2998C196.712 7.49981 203.812 0.799805 215.162 0.799805ZM215.212 2.39981C210.662 2.39981 206.812 4.2998 204.412 7.7498C202.562 10.3498 201.662 13.8998 201.662 18.2998C201.662 22.7498 202.562 26.2498 204.412 28.8998C206.712 32.2998 210.662 34.2498 215.212 34.2498C223.662 34.2498 228.812 28.2498 228.812 18.5498C228.812 13.8998 227.962 10.4998 226.062 7.7498C223.762 4.3498 219.762 2.39981 215.212 2.39981Z" fill="#252525"/>
<path d="M244.894 1.44981C245.944 1.5998 246.544 1.6498 247.344 1.6498C248.194 1.6498 248.744 1.5998 249.794 1.44981C249.394 5.2498 249.094 12.7498 249.094 19.0998C249.094 24.5498 249.494 26.8998 250.744 28.9998C252.594 32.0998 255.494 33.5498 259.644 33.5498C264.944 33.5498 268.794 30.8998 269.944 26.5998C270.594 23.9998 270.744 21.3998 270.744 12.8498C270.744 6.5498 270.694 5.0998 270.444 1.44981C271.794 1.6498 271.994 1.6498 272.394 1.6498C272.894 1.6498 273.294 1.5998 274.094 1.44981C273.794 3.2498 273.394 11.2998 273.294 16.3998C273.144 22.3498 273.094 23.2998 272.794 25.0998C272.144 28.8998 270.744 31.3498 268.044 33.2998C265.744 34.9498 262.544 35.8498 258.894 35.8498C254.544 35.8498 250.794 34.6498 248.344 32.4498C245.894 30.1998 244.944 27.4998 244.944 22.5498C244.944 21.9498 244.994 18.6498 245.094 15.2998C245.144 13.6498 245.144 12.2498 245.144 10.8998C245.144 7.3998 245.044 3.74981 244.894 1.44981Z" fill="#252525"/>
<path d="M292.603 18.7998H290.703C290.703 25.6498 290.903 32.8498 291.153 35.1998C289.953 35.0498 289.353 34.9998 288.553 34.9998C287.753 34.9998 287.203 35.0498 286.253 35.1998C286.553 30.6998 286.753 23.7998 286.753 17.0498C286.753 10.4498 286.603 5.39981 286.253 1.44981C287.853 1.5998 288.753 1.6498 290.253 1.6498C291.103 1.6498 292.303 1.5998 293.703 1.5498C295.453 1.4998 297.003 1.44981 297.703 1.44981C300.903 1.44981 302.953 1.8998 304.653 2.9498C306.603 4.1998 307.803 6.4998 307.803 9.0498C307.803 12.3998 305.953 15.1998 302.653 16.8498C301.353 17.5498 300.003 17.9498 297.653 18.3998L298.153 18.9998L301.353 23.0998C307.703 31.1998 309.103 32.8998 311.353 35.1998C309.853 35.0498 309.103 34.9998 308.203 34.9998C307.253 34.9998 306.603 35.0498 305.403 35.1998L304.903 34.4998C299.053 26.4998 294.153 20.1998 292.603 18.7998ZM290.703 16.8998C291.753 17.0498 292.553 17.0998 293.503 17.0998C299.753 17.0998 303.303 14.3998 303.303 9.5498C303.303 5.3998 300.553 3.1498 295.403 3.1498C294.053 3.1498 292.703 3.2498 291.003 3.4998C290.803 7.7998 290.703 10.2998 290.703 16.8998Z" fill="#252525"/>
<path d="M321.823 0.799805H322.623C323.523 1.7498 324.073 2.3998 327.173 5.7998C329.173 7.9498 330.823 9.74981 331.923 10.8998C333.573 12.5998 335.223 14.3498 336.823 16.0498C338.473 17.6998 340.373 19.7498 341.923 21.5498C344.623 24.4498 345.823 25.6498 347.273 27.0498L347.323 25.7998C347.423 19.0498 347.423 19.0498 347.423 16.1998C347.423 9.1998 347.323 4.3998 347.073 1.44981C348.023 1.5998 348.423 1.6498 348.823 1.6498C349.323 1.6498 349.723 1.5998 350.523 1.44981C349.973 5.9998 349.623 15.7498 349.623 25.9498C349.623 30.7998 349.623 33.0498 349.723 35.8498H348.973C345.623 31.7498 337.273 22.4998 328.823 13.6998C327.423 12.2498 326.073 10.8498 324.723 9.39981L324.123 8.7998L324.073 9.6998C323.973 19.9498 323.973 20.1498 323.973 21.4498C323.973 26.1998 324.173 31.9998 324.423 35.1998C323.723 35.0498 323.273 34.9998 322.623 34.9998C321.973 34.9998 321.623 35.0498 320.923 35.1998C321.273 32.7498 321.573 26.2998 321.723 17.8498C321.873 11.2998 321.873 11.2998 321.873 5.7998C321.873 3.0998 321.873 2.1998 321.823 0.799805Z" fill="#252525"/>
<path d="M376.219 0.999805L376.569 1.8998L379.969 9.8998L383.469 18.1498L387.169 26.6998C389.269 31.6498 389.769 32.7498 390.919 35.1998C389.869 35.0498 389.319 34.9998 388.319 34.9998C387.369 34.9998 386.819 35.0498 385.919 35.1998C385.019 32.5998 382.269 25.5498 380.719 21.9998H379.819L374.119 21.9498C374.069 21.9498 369.269 21.9998 368.119 22.0498C366.919 24.9498 365.969 27.2498 365.569 28.3998C365.519 28.4498 364.519 31.4498 363.219 35.1998C362.369 35.0498 361.969 34.9998 361.519 34.9998C361.019 34.9998 360.669 35.0498 359.669 35.1998C360.719 33.1498 361.469 31.5498 363.569 26.9498C364.819 24.0998 366.119 21.2498 367.419 18.2998C368.719 15.5498 369.919 12.8998 371.169 9.99981C372.319 7.44981 373.519 4.7498 374.719 2.0498L375.219 0.999805H375.719H376.219ZM374.519 7.44981L374.219 8.0998L371.719 13.6498L369.319 19.2498L369.019 19.9498C371.319 19.9998 372.269 19.9998 374.769 19.9998C376.969 19.9998 378.169 19.9998 379.869 19.9498L379.619 19.2498C378.819 17.3998 378.019 15.4998 377.269 13.6498C376.369 11.5498 375.619 9.8498 374.519 7.44981Z" fill="#252525"/>
<path d="M400.37 1.44981C401.37 1.5998 401.97 1.6498 403.07 1.6498C404.02 1.6498 404.47 1.5998 405.27 1.44981C404.87 6.6998 404.77 10.3498 404.77 20.2498C404.77 23.4998 404.92 29.6998 405.12 32.8998C406.12 32.9498 406.62 32.9498 407.32 32.9498C411.02 32.9498 415.67 32.5998 418.52 32.1498C418.37 32.7998 418.32 33.1998 418.32 33.7998C418.32 34.3498 418.37 34.6498 418.52 35.1998C416.97 35.0998 411.22 34.9998 408.97 34.9998C407.47 34.9998 402.12 35.0998 400.37 35.1998C400.62 32.2498 400.82 25.6998 400.82 18.3998C400.82 9.2498 400.77 6.99981 400.37 1.44981Z" fill="#252525"/>
</svg>
