<svg width="396" height="77" viewBox="0 0 396 77" fill="none" xmlns="http://www.w3.org/2000/svg">
<path d="M0.128004 76.096L0.104004 75.712C2.072 73.816 2.312 73.6 4.544 71.2C6.08 69.544 6.632 68.824 7.112 67.792C7.64 66.664 7.928 65.44 7.928 64.36C7.928 62.44 6.752 61.072 5.096 61.072C3.632 61.072 2.648 62.032 2.336 63.736H2.096C1.952 63.352 1.664 62.944 1.184 62.44C2.12 61 3.536 60.256 5.456 60.256C8.336 60.256 10.064 61.792 10.064 64.336C10.064 65.656 9.608 66.904 8.744 67.984C8.144 68.728 8.144 68.728 5.816 71.152L4.352 72.688C3.416 73.672 3.2 73.912 2.768 74.488L4.04 74.512C5.528 74.512 8.6 74.392 10.28 74.272C10.232 74.656 10.208 74.848 10.208 75.208C10.208 75.544 10.232 75.736 10.28 76.096C8.768 76 7.544 75.976 5.864 75.976C3.8 75.976 0.824004 76.024 0.128004 76.096Z" fill="#252525"/>
<path d="M20.8816 60.256C22.6576 60.256 24.1216 60.928 25.0096 62.152C25.9456 63.448 26.3776 65.368 26.3776 68.296C26.3776 71.2 25.9456 73.144 25.0096 74.416C24.0976 75.664 22.6576 76.312 20.8336 76.312C19.0096 76.312 17.5696 75.664 16.6576 74.416C15.7216 73.144 15.2896 71.2 15.2896 68.296C15.2896 65.368 15.7216 63.472 16.6576 62.152C17.5696 60.904 19.0096 60.256 20.8816 60.256ZM20.8576 61C18.3616 61 17.2576 63.232 17.2576 68.272C17.2576 73.288 18.3616 75.568 20.8336 75.568C23.3056 75.568 24.4096 73.288 24.4096 68.272C24.4096 65.968 24.1936 64.408 23.7136 63.136C23.2096 61.816 22.1536 61 20.8576 61Z" fill="#252525"/>
<path d="M30.4993 76.096L30.4753 75.712C32.4433 73.816 32.6833 73.6 34.9153 71.2C36.4513 69.544 37.0033 68.824 37.4833 67.792C38.0113 66.664 38.2993 65.44 38.2993 64.36C38.2993 62.44 37.1233 61.072 35.4673 61.072C34.0033 61.072 33.0193 62.032 32.7073 63.736H32.4673C32.3233 63.352 32.0353 62.944 31.5553 62.44C32.4913 61 33.9073 60.256 35.8273 60.256C38.7073 60.256 40.4353 61.792 40.4353 64.336C40.4353 65.656 39.9793 66.904 39.1153 67.984C38.5153 68.728 38.5153 68.728 36.1873 71.152L34.7233 72.688C33.7873 73.672 33.5713 73.912 33.1393 74.488L34.4113 74.512C35.8993 74.512 38.9713 74.392 40.6513 74.272C40.6033 74.656 40.5793 74.848 40.5793 75.208C40.5793 75.544 40.6033 75.736 40.6513 76.096C39.1393 76 37.9153 75.976 36.2353 75.976C34.1713 75.976 31.1953 76.024 30.4993 76.096Z" fill="#252525"/>
<path d="M45.6849 76.096L45.6609 75.712C47.6289 73.816 47.8689 73.6 50.1009 71.2C51.6369 69.544 52.1889 68.824 52.6689 67.792C53.1969 66.664 53.4849 65.44 53.4849 64.36C53.4849 62.44 52.3089 61.072 50.6529 61.072C49.1889 61.072 48.2049 62.032 47.8929 63.736H47.6529C47.5089 63.352 47.2209 62.944 46.7409 62.44C47.6769 61 49.0929 60.256 51.0129 60.256C53.8929 60.256 55.6209 61.792 55.6209 64.336C55.6209 65.656 55.1649 66.904 54.3009 67.984C53.7009 68.728 53.7009 68.728 51.3729 71.152L49.9089 72.688C48.9729 73.672 48.7569 73.912 48.3249 74.488L49.5969 74.512C51.0849 74.512 54.1569 74.392 55.8369 74.272C55.7889 74.656 55.7649 74.848 55.7649 75.208C55.7649 75.544 55.7889 75.736 55.8369 76.096C54.3249 76 53.1009 75.976 51.4209 75.976C49.3569 75.976 46.3809 76.024 45.6849 76.096Z" fill="#252525"/>
<path d="M76.1105 59.68L76.2785 60.112L77.9105 63.952L79.5905 67.912L81.3665 72.016C82.3745 74.392 82.6145 74.92 83.1665 76.096C82.6625 76.024 82.3985 76 81.9185 76C81.4625 76 81.1985 76.024 80.7665 76.096C80.3345 74.848 79.0145 71.464 78.2705 69.76H77.8385L75.1025 69.736C75.0785 69.736 72.7745 69.76 72.2225 69.784C71.6465 71.176 71.1905 72.28 70.9985 72.832C70.9745 72.856 70.4945 74.296 69.8705 76.096C69.4625 76.024 69.2705 76 69.0545 76C68.8145 76 68.6465 76.024 68.1665 76.096C68.6705 75.112 69.0305 74.344 70.0385 72.136C70.6385 70.768 71.2625 69.4 71.8865 67.984C72.5105 66.664 73.0865 65.392 73.6865 64C74.2385 62.776 74.8145 61.48 75.3905 60.184L75.6305 59.68H75.8705H76.1105ZM75.2945 62.776L75.1505 63.088L73.9505 65.752L72.7985 68.44L72.6545 68.776C73.7585 68.8 74.2145 68.8 75.4145 68.8C76.4705 68.8 77.0465 68.8 77.8625 68.776L77.7425 68.44C77.3585 67.552 76.9745 66.64 76.6145 65.752C76.1825 64.744 75.8225 63.928 75.2945 62.776Z" fill="#252525"/>
<path d="M86.7391 59.896C87.2431 59.968 87.5311 59.992 87.9151 59.992C88.3231 59.992 88.5871 59.968 89.0911 59.896C88.8991 61.72 88.7551 65.32 88.7551 68.368C88.7551 70.984 88.9471 72.112 89.5471 73.12C90.4351 74.608 91.8271 75.304 93.8191 75.304C96.3631 75.304 98.2111 74.032 98.7631 71.968C99.0751 70.72 99.1471 69.472 99.1471 65.368C99.1471 62.344 99.1231 61.648 99.0031 59.896C99.6511 59.992 99.7471 59.992 99.9391 59.992C100.179 59.992 100.371 59.968 100.755 59.896C100.611 60.76 100.419 64.624 100.371 67.072C100.299 69.928 100.275 70.384 100.131 71.248C99.8191 73.072 99.1471 74.248 97.8511 75.184C96.7471 75.976 95.2111 76.408 93.4591 76.408C91.3711 76.408 89.5711 75.832 88.3951 74.776C87.2191 73.696 86.7631 72.4 86.7631 70.024C86.7631 69.736 86.7871 68.152 86.8351 66.544C86.8591 65.752 86.8591 65.08 86.8591 64.432C86.8591 62.752 86.8111 61 86.7391 59.896Z" fill="#252525"/>
<path d="M109.943 61.12H109.559C106.055 61.264 105.863 61.264 104.807 61.432C104.879 61.144 104.903 60.976 104.903 60.712C104.903 60.448 104.879 60.256 104.807 59.896C106.943 60.016 107.615 60.04 110.663 60.04C114.023 60.04 114.695 60.016 117.095 59.896C116.975 60.232 116.951 60.4 116.951 60.664C116.951 60.928 116.975 61.096 117.047 61.432C116.255 61.264 114.431 61.144 112.103 61.12C112.007 62.608 111.959 65.008 111.959 67.48C111.959 71.608 112.031 74.8 112.175 76.096C111.599 76.024 111.311 76 110.951 76C110.567 76 110.327 76.024 109.823 76.096C109.967 74.944 110.063 71.032 110.063 66.808C110.063 65.152 110.015 63.352 109.943 61.12Z" fill="#252525"/>
<path d="M121.282 59.896C121.786 59.968 122.074 59.992 122.458 59.992C122.866 59.992 123.13 59.968 123.634 59.896C123.442 61.72 123.298 65.32 123.298 68.368C123.298 70.984 123.49 72.112 124.09 73.12C124.978 74.608 126.37 75.304 128.362 75.304C130.906 75.304 132.754 74.032 133.306 71.968C133.618 70.72 133.69 69.472 133.69 65.368C133.69 62.344 133.666 61.648 133.546 59.896C134.194 59.992 134.29 59.992 134.482 59.992C134.722 59.992 134.914 59.968 135.298 59.896C135.154 60.76 134.962 64.624 134.914 67.072C134.842 69.928 134.818 70.384 134.674 71.248C134.362 73.072 133.69 74.248 132.394 75.184C131.29 75.976 129.754 76.408 128.002 76.408C125.914 76.408 124.114 75.832 122.938 74.776C121.762 73.696 121.306 72.4 121.306 70.024C121.306 69.736 121.33 68.152 121.378 66.544C121.402 65.752 121.402 65.08 121.402 64.432C121.402 62.752 121.354 61 121.282 59.896Z" fill="#252525"/>
<path d="M142.815 59.68H143.199C145.527 64.288 148.503 69.904 149.943 72.376C150.423 71.56 150.687 71.08 151.671 69.28C153.111 66.64 154.887 63.4 156.999 59.68H157.311L157.359 60.088C157.455 60.88 157.527 61.648 157.599 62.44L157.935 65.416C158.439 70.336 158.991 74.752 159.231 76.096C158.583 76.024 158.343 76 158.079 76C157.815 76 157.575 76.024 156.951 76.096C156.927 74.08 156.519 69.52 155.871 64.432L155.823 63.952C153.687 67.552 150.591 73.456 149.583 75.856H149.391C146.679 70.336 146.631 70.24 143.511 64.552L143.295 64.168C142.695 68.584 142.095 74.584 142.119 76.096C141.591 76.024 141.447 76 141.255 76C141.039 76 140.871 76.024 140.439 76.096C140.895 73.744 141.423 70.264 142.071 65.32C142.383 62.872 142.599 61.408 142.671 60.904C142.719 60.544 142.767 60.112 142.815 59.68Z" fill="#252525"/>
<path d="M164.976 59.584H165.36C165.792 60.04 166.056 60.352 167.544 61.984C168.504 63.016 169.296 63.88 169.824 64.432C170.616 65.248 171.408 66.088 172.176 66.904C172.968 67.696 173.88 68.68 174.624 69.544C175.92 70.936 176.496 71.512 177.192 72.184L177.216 71.584C177.264 68.344 177.264 68.344 177.264 66.976C177.264 63.616 177.216 61.312 177.096 59.896C177.552 59.968 177.744 59.992 177.936 59.992C178.176 59.992 178.368 59.968 178.752 59.896C178.488 62.08 178.32 66.76 178.32 71.656C178.32 73.984 178.32 75.064 178.368 76.408H178.008C176.4 74.44 172.392 70 168.336 65.776C167.664 65.08 167.016 64.408 166.368 63.712L166.08 63.424L166.056 63.856C166.008 68.776 166.008 68.872 166.008 69.496C166.008 71.776 166.104 74.56 166.224 76.096C165.888 76.024 165.672 76 165.36 76C165.048 76 164.88 76.024 164.544 76.096C164.712 74.92 164.856 71.824 164.928 67.768C165 64.624 165 64.624 165 61.984C165 60.688 165 60.256 164.976 59.584Z" fill="#252525"/>
<path d="M205.842 73.48L205.962 73.552L205.914 73.768L205.794 74.272L205.674 74.776L205.626 74.968C204.234 75.928 202.41 76.408 200.25 76.408C195.186 76.408 191.898 73.144 191.898 68.128C191.898 62.872 195.379 59.584 200.923 59.584C202.891 59.584 204.642 59.92 205.986 60.568C205.77 61.096 205.602 61.744 205.507 62.392L205.339 62.464C204.115 61.168 202.506 60.472 200.706 60.472C198.762 60.472 197.058 61.288 195.882 62.752C194.802 64.072 194.274 65.8 194.274 68.056C194.274 70.36 194.827 72.136 195.979 73.456C197.131 74.8 198.762 75.52 200.658 75.52C202.578 75.52 204.234 74.872 205.842 73.48Z" fill="#252525"/>
<path d="M218.331 59.584C223.923 59.584 227.259 62.776 227.259 68.128C227.259 73.192 223.803 76.408 218.355 76.408C212.859 76.408 209.475 73.192 209.475 67.984C209.475 62.8 212.883 59.584 218.331 59.584ZM218.355 60.352C216.171 60.352 214.323 61.264 213.171 62.92C212.283 64.168 211.851 65.872 211.851 67.984C211.851 70.12 212.283 71.8 213.171 73.072C214.275 74.704 216.171 75.64 218.355 75.64C222.411 75.64 224.883 72.76 224.883 68.104C224.883 65.872 224.475 64.24 223.563 62.92C222.459 61.288 220.539 60.352 218.355 60.352Z" fill="#252525"/>
<path d="M232.482 59.896C232.962 59.968 233.25 59.992 233.778 59.992C234.234 59.992 234.45 59.968 234.834 59.896C234.642 62.416 234.594 64.168 234.594 68.92C234.594 70.48 234.666 73.456 234.762 74.992C235.242 75.016 235.482 75.016 235.818 75.016C237.594 75.016 239.826 74.848 241.194 74.632C241.122 74.944 241.098 75.136 241.098 75.424C241.098 75.688 241.122 75.832 241.194 76.096C240.45 76.048 237.69 76 236.61 76C235.89 76 233.322 76.048 232.482 76.096C232.602 74.68 232.698 71.536 232.698 68.032C232.698 63.64 232.674 62.56 232.482 59.896Z" fill="#252525"/>
<path d="M245.629 59.896C246.109 59.968 246.396 59.992 246.924 59.992C247.38 59.992 247.596 59.968 247.98 59.896C247.788 62.416 247.741 64.168 247.741 68.92C247.741 70.48 247.813 73.456 247.909 74.992C248.389 75.016 248.629 75.016 248.965 75.016C250.741 75.016 252.972 74.848 254.34 74.632C254.269 74.944 254.245 75.136 254.245 75.424C254.245 75.688 254.269 75.832 254.34 76.096C253.596 76.048 250.837 76 249.757 76C249.037 76 246.469 76.048 245.629 76.096C245.749 74.68 245.844 71.536 245.844 68.032C245.844 63.64 245.821 62.56 245.629 59.896Z" fill="#252525"/>
<path d="M267.391 76.096L267.031 76.072C264.247 76 264.247 76 263.719 76C262.327 76 259.423 76.048 258.775 76.096C258.943 74.464 259.039 70.696 259.039 66.712C259.039 63.64 258.967 61.216 258.871 59.896C259.639 59.968 259.663 59.968 263.167 59.992L265.111 59.968C266.431 59.968 266.815 59.944 267.271 59.896C267.223 60.232 267.199 60.4 267.199 60.592C267.199 60.76 267.223 60.928 267.271 61.288C265.951 61.144 263.623 61.048 261.919 61.048C261.655 61.048 261.439 61.048 261.127 61.072C261.103 61.24 261.079 62.176 261.007 63.88C260.935 66.184 260.935 66.184 260.935 66.52C260.935 66.568 260.935 66.784 260.959 67C261.295 67.024 261.439 67.024 261.823 67.024C263.623 67.024 265.807 66.928 266.719 66.808C266.647 67.168 266.623 67.36 266.623 67.576C266.623 67.816 266.647 67.96 266.719 68.224C265.711 68.128 263.887 68.056 261.775 68.056C261.463 68.056 261.271 68.056 260.935 68.08V68.488L260.959 69.688V71.464C260.959 71.944 260.959 72.544 260.983 73.216C261.007 73.96 261.031 74.44 261.031 74.56V74.944C261.367 74.968 261.583 74.968 261.871 74.968C263.839 74.968 266.335 74.824 267.391 74.656C267.343 74.968 267.319 75.136 267.319 75.376C267.319 75.64 267.343 75.784 267.391 76.096Z" fill="#252525"/>
<path d="M285.403 73.48L285.523 73.552L285.475 73.768L285.355 74.272L285.235 74.776L285.187 74.968C283.795 75.928 281.971 76.408 279.811 76.408C274.747 76.408 271.459 73.144 271.459 68.128C271.459 62.872 274.939 59.584 280.483 59.584C282.451 59.584 284.203 59.92 285.547 60.568C285.331 61.096 285.163 61.744 285.067 62.392L284.899 62.464C283.675 61.168 282.067 60.472 280.267 60.472C278.323 60.472 276.619 61.288 275.443 62.752C274.363 64.072 273.835 65.8 273.835 68.056C273.835 70.36 274.387 72.136 275.539 73.456C276.691 74.8 278.323 75.52 280.219 75.52C282.139 75.52 283.795 74.872 285.403 73.48Z" fill="#252525"/>
<path d="M294.329 61.12H293.945C290.441 61.264 290.249 61.264 289.193 61.432C289.265 61.144 289.289 60.976 289.289 60.712C289.289 60.448 289.265 60.256 289.193 59.896C291.329 60.016 292.001 60.04 295.049 60.04C298.409 60.04 299.081 60.016 301.481 59.896C301.361 60.232 301.337 60.4 301.337 60.664C301.337 60.928 301.361 61.096 301.433 61.432C300.641 61.264 298.817 61.144 296.489 61.12C296.393 62.608 296.345 65.008 296.345 67.48C296.345 71.608 296.417 74.8 296.561 76.096C295.985 76.024 295.697 76 295.337 76C294.953 76 294.713 76.024 294.209 76.096C294.353 74.944 294.449 71.032 294.449 66.808C294.449 65.152 294.401 63.352 294.329 61.12Z" fill="#252525"/>
<path d="M305.668 59.896C306.148 59.968 306.412 59.992 306.844 59.992C307.276 59.992 307.54 59.968 308.02 59.896C307.876 61.576 307.78 64.432 307.78 67.216C307.78 71.296 307.852 74.272 308.02 76.096C307.444 76.024 307.156 76 306.82 76C306.46 76 306.196 76.024 305.668 76.096C305.812 74.2 305.884 71.272 305.884 66.76C305.884 64.096 305.788 61.384 305.668 59.896Z" fill="#252525"/>
<path d="M322.099 59.584C327.691 59.584 331.027 62.776 331.027 68.128C331.027 73.192 327.571 76.408 322.123 76.408C316.627 76.408 313.243 73.192 313.243 67.984C313.243 62.8 316.651 59.584 322.099 59.584ZM322.123 60.352C319.939 60.352 318.091 61.264 316.939 62.92C316.051 64.168 315.619 65.872 315.619 67.984C315.619 70.12 316.051 71.8 316.939 73.072C318.043 74.704 319.939 75.64 322.123 75.64C326.179 75.64 328.651 72.76 328.651 68.104C328.651 65.872 328.243 64.24 327.331 62.92C326.227 61.288 324.307 60.352 322.123 60.352Z" fill="#252525"/>
<path d="M336.682 59.584H337.066C337.498 60.04 337.762 60.352 339.25 61.984C340.21 63.016 341.002 63.88 341.53 64.432C342.322 65.248 343.114 66.088 343.882 66.904C344.674 67.696 345.586 68.68 346.33 69.544C347.626 70.936 348.202 71.512 348.898 72.184L348.922 71.584C348.97 68.344 348.97 68.344 348.97 66.976C348.97 63.616 348.922 61.312 348.802 59.896C349.258 59.968 349.45 59.992 349.642 59.992C349.882 59.992 350.074 59.968 350.458 59.896C350.194 62.08 350.026 66.76 350.026 71.656C350.026 73.984 350.026 75.064 350.074 76.408H349.714C348.106 74.44 344.098 70 340.042 65.776C339.37 65.08 338.722 64.408 338.074 63.712L337.786 63.424L337.762 63.856C337.714 68.776 337.714 68.872 337.714 69.496C337.714 71.776 337.81 74.56 337.93 76.096C337.594 76.024 337.378 76 337.066 76C336.754 76 336.586 76.024 336.25 76.096C336.418 74.92 336.562 71.824 336.634 67.768C336.706 64.624 336.706 64.624 336.706 61.984C336.706 60.688 336.706 60.256 336.682 59.584Z" fill="#252525"/>
<path d="M7.27383 0.859973L9.91983 0.817973C12.9858 0.817973 14.7078 0.98597 16.3038 1.48997C18.7818 2.24597 20.1678 4.21997 20.1678 6.86597C20.1678 9.00797 19.1178 11.024 17.3538 12.242C16.2198 12.998 15.2958 13.418 13.4058 13.838C18.6978 14.636 21.2598 16.862 21.2598 20.768C21.2598 23.372 19.9158 25.85 17.7738 27.236C15.7158 28.58 13.2378 29.168 9.75183 29.168C9.12183 29.168 8.28183 29.126 7.31583 29.084C6.18183 29.042 5.34183 29 4.92183 29C4.08183 29 3.57783 29.042 2.52783 29.168C2.86383 25.934 2.94783 22.952 2.94783 13.46C2.94783 8.58797 2.82183 2.83397 2.65383 0.817973C3.61983 0.901972 4.16583 0.943972 4.96383 0.943972C5.29983 0.943972 6.09783 0.901972 7.27383 0.859973ZM6.22383 12.83V13.418C6.81183 13.46 7.14783 13.46 7.56783 13.46C13.6158 13.46 16.5138 11.57 16.5138 7.62197C16.5138 4.05197 14.2458 2.32997 9.45783 2.32997C8.40783 2.32997 7.73583 2.37197 6.39183 2.53997C6.26583 5.89997 6.26583 6.19397 6.26583 10.562L6.22383 12.83ZM6.26583 18.122V21.104C6.26583 22.406 6.34983 26.228 6.43383 27.404C7.73583 27.614 8.53383 27.656 9.45783 27.656C11.8938 27.656 13.6578 27.194 14.9598 26.186C16.4718 25.052 17.3958 23.036 17.3958 20.852C17.3958 18.458 16.3038 16.526 14.4978 15.728C13.1538 15.098 11.5158 14.846 9.03783 14.846C8.32383 14.846 7.73583 14.888 6.30783 14.93L6.26583 15.518V18.122Z" fill="#252525"/>
<path d="M32.0922 24.758C33.3522 24.758 34.4022 25.808 34.4022 27.068C34.4022 28.412 33.3522 29.42 32.0082 29.42C30.7482 29.42 29.7402 28.328 29.7402 27.026C29.7402 25.808 30.7902 24.758 32.0922 24.758ZM32.0922 10.058C33.3522 10.058 34.4022 11.108 34.4022 12.368C34.4022 13.712 33.3522 14.72 32.0082 14.72C30.7482 14.72 29.7402 13.628 29.7402 12.326C29.7402 11.108 30.7902 10.058 32.0922 10.058Z" fill="#252525"/>
<path d="M59.1169 29.168L58.4869 29.126C53.6149 29 53.6149 29 52.6909 29C50.2549 29 45.1729 29.084 44.0389 29.168C44.3329 26.312 44.5009 19.718 44.5009 12.746C44.5009 7.36997 44.3749 3.12797 44.2069 0.817973C45.5509 0.943972 45.5929 0.943972 51.7249 0.985971L55.1269 0.943972C57.4369 0.943972 58.1089 0.901972 58.9069 0.817973C58.8229 1.40597 58.7809 1.69997 58.7809 2.03597C58.7809 2.32997 58.8229 2.62397 58.9069 3.25397C56.5969 3.00197 52.5229 2.83397 49.5409 2.83397C49.0789 2.83397 48.7009 2.83397 48.1549 2.87597C48.1129 3.16997 48.0709 4.80797 47.9449 7.78997C47.8189 11.822 47.8189 11.822 47.8189 12.41C47.8189 12.494 47.8189 12.872 47.8609 13.25C48.4489 13.292 48.7009 13.292 49.3729 13.292C52.5229 13.292 56.3449 13.124 57.9409 12.914C57.8149 13.544 57.7729 13.88 57.7729 14.258C57.7729 14.678 57.8149 14.93 57.9409 15.392C56.1769 15.224 52.9849 15.098 49.2889 15.098C48.7429 15.098 48.4069 15.098 47.8189 15.14V15.854L47.8609 17.954V21.062C47.8609 21.902 47.8609 22.952 47.9029 24.128C47.9449 25.43 47.9869 26.27 47.9869 26.48V27.152C48.5749 27.194 48.9529 27.194 49.4569 27.194C52.9009 27.194 57.2689 26.942 59.1169 26.648C59.0329 27.194 58.9909 27.488 58.9909 27.908C58.9909 28.37 59.0329 28.622 59.1169 29.168Z" fill="#252525"/>
<path d="M91.2177 24.59L91.4277 24.716L91.3437 25.094L91.1337 25.976L90.9237 26.858L90.8397 27.194C88.4037 28.874 85.2117 29.714 81.4317 29.714C72.5697 29.714 66.8157 24.002 66.8157 15.224C66.8157 6.02597 72.9057 0.271973 82.6077 0.271973C86.0517 0.271973 89.1177 0.859972 91.4697 1.99397C91.0917 2.91797 90.7977 4.05197 90.6297 5.18597L90.3357 5.31197C88.1937 3.04397 85.3797 1.82597 82.2297 1.82597C78.8277 1.82597 75.8457 3.25397 73.7877 5.81597C71.8977 8.12597 70.9737 11.15 70.9737 15.098C70.9737 19.13 71.9397 22.238 73.9557 24.548C75.9717 26.9 78.8277 28.16 82.1457 28.16C85.5057 28.16 88.4037 27.026 91.2177 24.59Z" fill="#252525"/>
<path d="M100.275 0.817973C101.115 0.943972 101.619 0.985971 102.543 0.985971C103.341 0.985971 103.719 0.943972 104.391 0.817973C104.055 5.22797 103.971 8.29397 103.971 16.61C103.971 19.34 104.097 24.548 104.265 27.236C105.105 27.278 105.525 27.278 106.113 27.278C109.221 27.278 113.127 26.984 115.521 26.606C115.395 27.152 115.353 27.488 115.353 27.992C115.353 28.454 115.395 28.706 115.521 29.168C114.219 29.084 109.389 29 107.499 29C106.239 29 101.745 29.084 100.275 29.168C100.485 26.69 100.653 21.188 100.653 15.056C100.653 7.36997 100.611 5.47997 100.275 0.817973Z" fill="#252525"/>
<path d="M136.101 0.439973L136.395 1.19597L139.251 7.91597L142.191 14.846L145.299 22.028C147.063 26.186 147.483 27.11 148.449 29.168C147.567 29.042 147.105 29 146.265 29C145.467 29 145.005 29.042 144.249 29.168C143.493 26.984 141.183 21.062 139.881 18.08H139.125L134.337 18.038C134.295 18.038 130.263 18.08 129.297 18.122C128.289 20.558 127.491 22.49 127.155 23.456C127.113 23.498 126.273 26.018 125.181 29.168C124.467 29.042 124.131 29 123.753 29C123.333 29 123.039 29.042 122.199 29.168C123.081 27.446 123.711 26.102 125.475 22.238C126.525 19.844 127.617 17.45 128.709 14.972C129.801 12.662 130.809 10.436 131.859 7.99997C132.825 5.85797 133.833 3.58997 134.841 1.32197L135.261 0.439973H135.681H136.101ZM134.673 5.85797L134.421 6.40397L132.321 11.066L130.305 15.77L130.053 16.358C131.985 16.4 132.783 16.4 134.883 16.4C136.731 16.4 137.739 16.4 139.167 16.358L138.957 15.77C138.285 14.216 137.613 12.62 136.983 11.066C136.227 9.30197 135.597 7.87397 134.673 5.85797Z" fill="#252525"/>
<path d="M159.304 2.95997H158.632C152.5 3.21197 152.164 3.21197 150.316 3.50597C150.442 3.00197 150.484 2.70797 150.484 2.24597C150.484 1.78397 150.442 1.44797 150.316 0.817973C154.054 1.02797 155.23 1.06997 160.564 1.06997C166.444 1.06997 167.62 1.02797 171.82 0.817973C171.61 1.40597 171.568 1.69997 171.568 2.16197C171.568 2.62397 171.61 2.91797 171.736 3.50597C170.35 3.21197 167.158 3.00197 163.084 2.95997C162.916 5.56397 162.832 9.76397 162.832 14.09C162.832 21.314 162.958 26.9 163.21 29.168C162.202 29.042 161.698 29 161.068 29C160.396 29 159.976 29.042 159.094 29.168C159.346 27.152 159.514 20.306 159.514 12.914C159.514 10.016 159.43 6.86597 159.304 2.95997Z" fill="#252525"/>
<path d="M189.827 34.796L189.491 33.704C190.079 33.788 190.373 33.83 190.835 33.83C194.195 33.83 195.916 32.108 196.21 28.37C196.378 26.354 196.463 21.692 196.463 13.418C196.463 8.41997 196.295 3.33797 196.001 0.817973C197.177 0.943972 197.639 0.985971 198.143 0.985971C198.689 0.985971 199.151 0.943972 200.159 0.817973C199.865 5.81597 199.781 8.50397 199.781 13.082C199.781 15.266 199.823 17.534 199.865 19.55C199.949 21.986 199.991 24.17 199.991 25.304C199.991 29.336 198.772 31.94 196.126 33.62C194.824 34.418 193.018 34.88 190.96 34.88C190.54 34.88 190.289 34.88 189.827 34.796Z" fill="#252525"/>
<path d="M224.976 0.271973C234.762 0.271973 240.6 5.85797 240.6 15.224C240.6 24.086 234.552 29.714 225.018 29.714C215.4 29.714 209.478 24.086 209.478 14.972C209.478 5.89997 215.442 0.271973 224.976 0.271973ZM225.018 1.61597C221.196 1.61597 217.962 3.21197 215.946 6.10997C214.392 8.29397 213.636 11.276 213.636 14.972C213.636 18.71 214.392 21.65 215.946 23.876C217.878 26.732 221.196 28.37 225.018 28.37C232.116 28.37 236.442 23.33 236.442 15.182C236.442 11.276 235.728 8.41997 234.132 6.10997C232.2 3.25397 228.84 1.61597 225.018 1.61597Z" fill="#252525"/>
<path d="M249.95 0.817973C250.832 0.943972 251.336 0.985971 252.008 0.985971C252.722 0.985971 253.184 0.943972 254.066 0.817973C253.73 4.00997 253.478 10.31 253.478 15.644C253.478 20.222 253.814 22.196 254.864 23.96C256.418 26.564 258.854 27.782 262.34 27.782C266.792 27.782 270.026 25.556 270.992 21.944C271.538 19.76 271.664 17.576 271.664 10.394C271.664 5.10197 271.622 3.88397 271.412 0.817973C272.546 0.985971 272.714 0.985971 273.05 0.985971C273.47 0.985971 273.806 0.943972 274.478 0.817973C274.226 2.32997 273.89 9.09197 273.806 13.376C273.68 18.374 273.638 19.172 273.386 20.684C272.84 23.876 271.664 25.934 269.396 27.572C267.464 28.958 264.776 29.714 261.71 29.714C258.056 29.714 254.906 28.706 252.848 26.858C250.79 24.968 249.992 22.7 249.992 18.542C249.992 18.038 250.034 15.266 250.118 12.452C250.16 11.066 250.16 9.88997 250.16 8.75597C250.16 5.81597 250.076 2.74997 249.95 0.817973Z" fill="#252525"/>
<path d="M290.026 15.392H288.43C288.43 21.146 288.598 27.194 288.808 29.168C287.8 29.042 287.296 29 286.624 29C285.952 29 285.49 29.042 284.692 29.168C284.944 25.388 285.112 19.592 285.112 13.922C285.112 8.37797 284.986 4.13597 284.692 0.817973C286.036 0.943972 286.792 0.985971 288.052 0.985971C288.766 0.985971 289.774 0.943971 290.95 0.901972C292.42 0.859972 293.722 0.817973 294.31 0.817973C296.998 0.817973 298.72 1.19597 300.148 2.07797C301.786 3.12797 302.794 5.05997 302.794 7.20197C302.794 10.016 301.24 12.368 298.468 13.754C297.376 14.342 296.242 14.678 294.268 15.056L294.688 15.56L297.376 19.004C302.71 25.808 303.886 27.236 305.776 29.168C304.516 29.042 303.886 29 303.13 29C302.332 29 301.786 29.042 300.778 29.168L300.358 28.58C295.444 21.86 291.328 16.568 290.026 15.392ZM288.43 13.796C289.312 13.922 289.984 13.964 290.782 13.964C296.032 13.964 299.014 11.696 299.014 7.62197C299.014 4.13597 296.704 2.24597 292.378 2.24597C291.244 2.24597 290.11 2.32997 288.682 2.53997C288.514 6.15197 288.43 8.25197 288.43 13.796Z" fill="#252525"/>
<path d="M314.571 0.271973H315.243C315.999 1.06997 316.461 1.61597 319.065 4.47197C320.745 6.27797 322.131 7.78997 323.055 8.75597C324.441 10.184 325.827 11.654 327.171 13.082C328.557 14.468 330.153 16.19 331.455 17.702C333.723 20.138 334.731 21.146 335.949 22.322L335.991 21.272C336.075 15.602 336.075 15.602 336.075 13.208C336.075 7.32797 335.991 3.29597 335.781 0.817973C336.579 0.943972 336.915 0.985971 337.251 0.985971C337.671 0.985971 338.007 0.943972 338.679 0.817973C338.217 4.63997 337.923 12.83 337.923 21.398C337.923 25.472 337.923 27.362 338.007 29.714H337.377C334.563 26.27 327.549 18.5 320.451 11.108C319.275 9.88997 318.141 8.71397 317.007 7.49597L316.503 6.99197L316.461 7.74797C316.377 16.358 316.377 16.526 316.377 17.618C316.377 21.608 316.545 26.48 316.755 29.168C316.167 29.042 315.789 29 315.243 29C314.697 29 314.403 29.042 313.815 29.168C314.109 27.11 314.361 21.692 314.487 14.594C314.613 9.09197 314.613 9.09197 314.613 4.47197C314.613 2.20397 314.613 1.44797 314.571 0.271973Z" fill="#252525"/>
<path d="M360.264 0.439973L360.558 1.19597L363.414 7.91597L366.354 14.846L369.462 22.028C371.226 26.186 371.646 27.11 372.612 29.168C371.73 29.042 371.268 29 370.428 29C369.63 29 369.168 29.042 368.412 29.168C367.656 26.984 365.346 21.062 364.044 18.08H363.288L358.5 18.038C358.458 18.038 354.426 18.08 353.46 18.122C352.452 20.558 351.654 22.49 351.318 23.456C351.276 23.498 350.436 26.018 349.344 29.168C348.63 29.042 348.294 29 347.916 29C347.496 29 347.202 29.042 346.362 29.168C347.244 27.446 347.874 26.102 349.638 22.238C350.688 19.844 351.78 17.45 352.872 14.972C353.964 12.662 354.972 10.436 356.022 7.99997C356.988 5.85797 357.996 3.58997 359.004 1.32197L359.424 0.439973H359.844H360.264ZM358.836 5.85797L358.584 6.40397L356.484 11.066L354.468 15.77L354.216 16.358C356.148 16.4 356.946 16.4 359.046 16.4C360.894 16.4 361.902 16.4 363.33 16.358L363.12 15.77C362.448 14.216 361.776 12.62 361.146 11.066C360.39 9.30197 359.76 7.87397 358.836 5.85797Z" fill="#252525"/>
<path d="M380.551 0.817973C381.391 0.943972 381.895 0.985971 382.819 0.985971C383.617 0.985971 383.995 0.943972 384.667 0.817973C384.331 5.22797 384.247 8.29397 384.247 16.61C384.247 19.34 384.373 24.548 384.541 27.236C385.381 27.278 385.801 27.278 386.389 27.278C389.497 27.278 393.403 26.984 395.797 26.606C395.671 27.152 395.629 27.488 395.629 27.992C395.629 28.454 395.671 28.706 395.797 29.168C394.495 29.084 389.665 29 387.775 29C386.515 29 382.021 29.084 380.551 29.168C380.761 26.69 380.929 21.188 380.929 15.056C380.929 7.36997 380.887 5.47997 380.551 0.817973Z" fill="#252525"/>
</svg>
